<svg width="17" height="16" viewBox="0 0 17 16" fill="none" xmlns="http://www.w3.org/2000/svg">
<path fill-rule="evenodd" clip-rule="evenodd" d="M8.5 0C3.80375 0 0 3.67055 0 8.20235C0 11.8319 2.43313 14.8975 5.81188 15.9843C6.23688 16.0561 6.39625 15.81 6.39625 15.5947C6.39625 15.3999 6.38563 14.754 6.38563 14.067C4.25 14.4464 3.6975 13.5646 3.5275 13.1033C3.43188 12.8674 3.0175 12.1395 2.65625 11.9447C2.35875 11.7909 1.93375 11.4115 2.64563 11.4013C3.315 11.391 3.79313 11.9959 3.9525 12.242C4.7175 13.4826 5.93938 13.134 6.42813 12.9187C6.5025 12.3855 6.72563 12.0267 6.97 11.8216C5.07875 11.6166 3.1025 10.9091 3.1025 7.77173C3.1025 6.87972 3.43187 6.14151 3.97375 5.56735C3.88875 5.36229 3.59125 4.52155 4.05875 3.39372C4.05875 3.39372 4.77063 3.17841 6.39625 4.23446C7.07625 4.04991 7.79875 3.95763 8.52125 3.95763C9.24375 3.95763 9.96625 4.04991 10.6463 4.23446C12.2719 3.16816 12.9838 3.39372 12.9838 3.39372C13.4513 4.52155 13.1538 5.36229 13.0688 5.56735C13.6106 6.14151 13.94 6.86947 13.94 7.77173C13.94 10.9194 11.9531 11.6166 10.0619 11.8216C10.37 12.078 10.6356 12.5701 10.6356 13.3391C10.6356 14.4361 10.625 15.3179 10.625 15.5947C10.625 15.81 10.7844 16.0664 11.2094 15.9843C14.5669 14.8975 17 11.8216 17 8.20235C17 3.67055 13.1962 0 8.5 0Z" fill="#E1E1E1"/>
</svg>
