<svg width="337" height="115" viewBox="0 0 337 115" fill="none" xmlns="http://www.w3.org/2000/svg">
<g filter="url(#filter0_d_41_13)">
<path d="M10 22C10 16.4772 14.4772 12 20 12H315C320.523 12 325 16.4772 325 22V92C325 97.5228 320.523 102 315 102H20C14.4772 102 10 97.5228 10 92V22Z" fill="url(#paint0_linear_41_13)"/>
</g>
<path d="M91.0547 46H88.6797L88.6953 44.7734H91.0547C91.8672 44.7734 92.5443 44.6042 93.0859 44.2656C93.6276 43.9219 94.0339 43.4427 94.3047 42.8281C94.5807 42.2083 94.7188 41.4844 94.7188 40.6562V39.9609C94.7188 39.3099 94.6406 38.7318 94.4844 38.2266C94.3281 37.7161 94.099 37.2865 93.7969 36.9375C93.4948 36.5833 93.125 36.3151 92.6875 36.1328C92.2552 35.9505 91.7578 35.8594 91.1953 35.8594H88.6328V34.625H91.1953C91.9401 34.625 92.6198 34.75 93.2344 35C93.849 35.2448 94.3776 35.6016 94.8203 36.0703C95.2682 36.5339 95.612 37.0964 95.8516 37.7578C96.0911 38.4141 96.2109 39.1536 96.2109 39.9766V40.6562C96.2109 41.4792 96.0911 42.2214 95.8516 42.8828C95.612 43.5391 95.2656 44.099 94.8125 44.5625C94.3646 45.026 93.8229 45.3828 93.1875 45.6328C92.5573 45.8776 91.8464 46 91.0547 46ZM89.4844 34.625V46H87.9766V34.625H89.4844Z" fill="#E5E5E5"/>
<path d="M97.875 41.8672V41.6875C97.875 41.0781 97.9635 40.513 98.1406 39.9922C98.3177 39.4661 98.5729 39.0104 98.9062 38.625C99.2396 38.2344 99.6432 37.9323 100.117 37.7188C100.591 37.5 101.122 37.3906 101.711 37.3906C102.305 37.3906 102.839 37.5 103.312 37.7188C103.792 37.9323 104.198 38.2344 104.531 38.625C104.87 39.0104 105.128 39.4661 105.305 39.9922C105.482 40.513 105.57 41.0781 105.57 41.6875V41.8672C105.57 42.4766 105.482 43.0417 105.305 43.5625C105.128 44.0833 104.87 44.5391 104.531 44.9297C104.198 45.3151 103.794 45.6172 103.32 45.8359C102.852 46.0495 102.32 46.1562 101.727 46.1562C101.133 46.1562 100.599 46.0495 100.125 45.8359C99.651 45.6172 99.2448 45.3151 98.9062 44.9297C98.5729 44.5391 98.3177 44.0833 98.1406 43.5625C97.9635 43.0417 97.875 42.4766 97.875 41.8672ZM99.3203 41.6875V41.8672C99.3203 42.2891 99.3698 42.6875 99.4688 43.0625C99.5677 43.4323 99.7161 43.7604 99.9141 44.0469C100.117 44.3333 100.37 44.5599 100.672 44.7266C100.974 44.888 101.326 44.9688 101.727 44.9688C102.122 44.9688 102.469 44.888 102.766 44.7266C103.068 44.5599 103.318 44.3333 103.516 44.0469C103.714 43.7604 103.862 43.4323 103.961 43.0625C104.065 42.6875 104.117 42.2891 104.117 41.8672V41.6875C104.117 41.2708 104.065 40.8776 103.961 40.5078C103.862 40.1328 103.711 39.8021 103.508 39.5156C103.31 39.224 103.06 38.9948 102.758 38.8281C102.461 38.6615 102.112 38.5781 101.711 38.5781C101.315 38.5781 100.966 38.6615 100.664 38.8281C100.367 38.9948 100.117 39.224 99.9141 39.5156C99.7161 39.8021 99.5677 40.1328 99.4688 40.5078C99.3698 40.8776 99.3203 41.2708 99.3203 41.6875Z" fill="#E5E5E5"/>
<path d="M109.523 44.5L111.695 37.5469H112.648L112.461 38.9297L110.25 46H109.32L109.523 44.5ZM108.062 37.5469L109.914 44.5781L110.047 46H109.07L106.617 37.5469H108.062ZM114.727 44.5234L116.492 37.5469H117.93L115.477 46H114.508L114.727 44.5234ZM112.859 37.5469L114.984 44.3828L115.227 46H114.305L112.031 38.9141L111.844 37.5469H112.859Z" fill="#E5E5E5"/>
<path d="M120.859 39.3516V46H119.414V37.5469H120.781L120.859 39.3516ZM120.516 41.4531L119.914 41.4297C119.919 40.8516 120.005 40.3177 120.172 39.8281C120.339 39.3333 120.573 38.9036 120.875 38.5391C121.177 38.1745 121.536 37.8932 121.953 37.6953C122.375 37.4922 122.841 37.3906 123.352 37.3906C123.768 37.3906 124.143 37.4479 124.477 37.5625C124.81 37.6719 125.094 37.849 125.328 38.0938C125.568 38.3385 125.75 38.6562 125.875 39.0469C126 39.4323 126.062 39.9036 126.062 40.4609V46H124.609V40.4453C124.609 40.0026 124.544 39.6484 124.414 39.3828C124.284 39.112 124.094 38.9167 123.844 38.7969C123.594 38.6719 123.286 38.6094 122.922 38.6094C122.562 38.6094 122.234 38.6849 121.938 38.8359C121.646 38.987 121.393 39.1953 121.18 39.4609C120.971 39.7266 120.807 40.0312 120.688 40.375C120.573 40.7135 120.516 41.0729 120.516 41.4531Z" fill="#E5E5E5"/>
<path d="M129.828 34V46H128.375V34H129.828Z" fill="#E5E5E5"/>
<path d="M131.766 41.8672V41.6875C131.766 41.0781 131.854 40.513 132.031 39.9922C132.208 39.4661 132.464 39.0104 132.797 38.625C133.13 38.2344 133.534 37.9323 134.008 37.7188C134.482 37.5 135.013 37.3906 135.602 37.3906C136.195 37.3906 136.729 37.5 137.203 37.7188C137.682 37.9323 138.089 38.2344 138.422 38.625C138.76 39.0104 139.018 39.4661 139.195 39.9922C139.372 40.513 139.461 41.0781 139.461 41.6875V41.8672C139.461 42.4766 139.372 43.0417 139.195 43.5625C139.018 44.0833 138.76 44.5391 138.422 44.9297C138.089 45.3151 137.685 45.6172 137.211 45.8359C136.742 46.0495 136.211 46.1562 135.617 46.1562C135.023 46.1562 134.49 46.0495 134.016 45.8359C133.542 45.6172 133.135 45.3151 132.797 44.9297C132.464 44.5391 132.208 44.0833 132.031 43.5625C131.854 43.0417 131.766 42.4766 131.766 41.8672ZM133.211 41.6875V41.8672C133.211 42.2891 133.26 42.6875 133.359 43.0625C133.458 43.4323 133.607 43.7604 133.805 44.0469C134.008 44.3333 134.26 44.5599 134.562 44.7266C134.865 44.888 135.216 44.9688 135.617 44.9688C136.013 44.9688 136.359 44.888 136.656 44.7266C136.958 44.5599 137.208 44.3333 137.406 44.0469C137.604 43.7604 137.753 43.4323 137.852 43.0625C137.956 42.6875 138.008 42.2891 138.008 41.8672V41.6875C138.008 41.2708 137.956 40.8776 137.852 40.5078C137.753 40.1328 137.602 39.8021 137.398 39.5156C137.201 39.224 136.951 38.9948 136.648 38.8281C136.352 38.6615 136.003 38.5781 135.602 38.5781C135.206 38.5781 134.857 38.6615 134.555 38.8281C134.258 38.9948 134.008 39.224 133.805 39.5156C133.607 39.8021 133.458 40.1328 133.359 40.5078C133.26 40.8776 133.211 41.2708 133.211 41.6875Z" fill="#E5E5E5"/>
<path d="M146.258 44.5547V40.2031C146.258 39.8698 146.19 39.5807 146.055 39.3359C145.924 39.0859 145.727 38.8932 145.461 38.7578C145.195 38.6224 144.867 38.5547 144.477 38.5547C144.112 38.5547 143.792 38.6172 143.516 38.7422C143.245 38.8672 143.031 39.0312 142.875 39.2344C142.724 39.4375 142.648 39.6562 142.648 39.8906H141.203C141.203 39.5885 141.281 39.2891 141.438 38.9922C141.594 38.6953 141.818 38.4271 142.109 38.1875C142.406 37.9427 142.76 37.75 143.172 37.6094C143.589 37.4635 144.052 37.3906 144.562 37.3906C145.177 37.3906 145.719 37.4948 146.188 37.7031C146.661 37.9115 147.031 38.2266 147.297 38.6484C147.568 39.0651 147.703 39.5885 147.703 40.2188V44.1562C147.703 44.4375 147.727 44.737 147.773 45.0547C147.826 45.3724 147.901 45.6458 148 45.875V46H146.492C146.419 45.8333 146.362 45.612 146.32 45.3359C146.279 45.0547 146.258 44.7943 146.258 44.5547ZM146.508 40.875L146.523 41.8906H145.062C144.651 41.8906 144.284 41.9245 143.961 41.9922C143.638 42.0547 143.367 42.151 143.148 42.2812C142.93 42.4115 142.763 42.5755 142.648 42.7734C142.534 42.9661 142.477 43.1927 142.477 43.4531C142.477 43.7188 142.536 43.9609 142.656 44.1797C142.776 44.3984 142.956 44.5729 143.195 44.7031C143.44 44.8281 143.74 44.8906 144.094 44.8906C144.536 44.8906 144.927 44.7969 145.266 44.6094C145.604 44.4219 145.872 44.1927 146.07 43.9219C146.273 43.651 146.383 43.388 146.398 43.1328L147.016 43.8281C146.979 44.0469 146.88 44.2891 146.719 44.5547C146.557 44.8203 146.341 45.0755 146.07 45.3203C145.805 45.5599 145.487 45.7604 145.117 45.9219C144.753 46.0781 144.341 46.1562 143.883 46.1562C143.31 46.1562 142.807 46.0443 142.375 45.8203C141.948 45.5964 141.615 45.2969 141.375 44.9219C141.141 44.5417 141.023 44.1172 141.023 43.6484C141.023 43.1953 141.112 42.7969 141.289 42.4531C141.466 42.1042 141.721 41.8151 142.055 41.5859C142.388 41.3516 142.789 41.1745 143.258 41.0547C143.727 40.9349 144.25 40.875 144.828 40.875H146.508Z" fill="#E5E5E5"/>
<path d="M155.305 44.3594V34H156.758V46H155.43L155.305 44.3594ZM149.617 41.8672V41.7031C149.617 41.0573 149.695 40.4714 149.852 39.9453C150.013 39.4141 150.24 38.9583 150.531 38.5781C150.828 38.1979 151.18 37.9062 151.586 37.7031C151.997 37.4948 152.456 37.3906 152.961 37.3906C153.492 37.3906 153.956 37.4844 154.352 37.6719C154.753 37.8542 155.091 38.1224 155.367 38.4766C155.648 38.8255 155.87 39.2474 156.031 39.7422C156.193 40.237 156.305 40.7969 156.367 41.4219V42.1406C156.31 42.7604 156.198 43.3177 156.031 43.8125C155.87 44.3073 155.648 44.7292 155.367 45.0781C155.091 45.4271 154.753 45.6953 154.352 45.8828C153.951 46.0651 153.482 46.1562 152.945 46.1562C152.451 46.1562 151.997 46.0495 151.586 45.8359C151.18 45.6224 150.828 45.3229 150.531 44.9375C150.24 44.5521 150.013 44.099 149.852 43.5781C149.695 43.0521 149.617 42.4818 149.617 41.8672ZM151.07 41.7031V41.8672C151.07 42.2891 151.112 42.6849 151.195 43.0547C151.284 43.4245 151.419 43.75 151.602 44.0312C151.784 44.3125 152.016 44.5339 152.297 44.6953C152.578 44.8516 152.914 44.9297 153.305 44.9297C153.784 44.9297 154.177 44.8281 154.484 44.625C154.797 44.4219 155.047 44.1536 155.234 43.8203C155.422 43.487 155.568 43.125 155.672 42.7344V40.8516C155.609 40.5651 155.518 40.2891 155.398 40.0234C155.284 39.7526 155.133 39.513 154.945 39.3047C154.763 39.0911 154.536 38.9219 154.266 38.7969C154 38.6719 153.685 38.6094 153.32 38.6094C152.924 38.6094 152.583 38.6927 152.297 38.8594C152.016 39.0208 151.784 39.2448 151.602 39.5312C151.419 39.8125 151.284 40.1406 151.195 40.5156C151.112 40.8854 151.07 41.2812 151.07 41.7031Z" fill="#E5E5E5"/>
<path d="M165.133 46H163.688V36.6562C163.688 36.0469 163.797 35.5339 164.016 35.1172C164.24 34.6953 164.56 34.3776 164.977 34.1641C165.393 33.9453 165.888 33.8359 166.461 33.8359C166.628 33.8359 166.794 33.8464 166.961 33.8672C167.133 33.888 167.299 33.9193 167.461 33.9609L167.383 35.1406C167.273 35.1146 167.148 35.0964 167.008 35.0859C166.872 35.0755 166.737 35.0703 166.602 35.0703C166.294 35.0703 166.029 35.1328 165.805 35.2578C165.586 35.3776 165.419 35.5547 165.305 35.7891C165.19 36.0234 165.133 36.3125 165.133 36.6562V46ZM166.93 37.5469V38.6562H162.352V37.5469H166.93Z" fill="#E5E5E5"/>
<path d="M168.156 41.8672V41.6875C168.156 41.0781 168.245 40.513 168.422 39.9922C168.599 39.4661 168.854 39.0104 169.188 38.625C169.521 38.2344 169.924 37.9323 170.398 37.7188C170.872 37.5 171.404 37.3906 171.992 37.3906C172.586 37.3906 173.12 37.5 173.594 37.7188C174.073 37.9323 174.479 38.2344 174.812 38.625C175.151 39.0104 175.409 39.4661 175.586 39.9922C175.763 40.513 175.852 41.0781 175.852 41.6875V41.8672C175.852 42.4766 175.763 43.0417 175.586 43.5625C175.409 44.0833 175.151 44.5391 174.812 44.9297C174.479 45.3151 174.076 45.6172 173.602 45.8359C173.133 46.0495 172.602 46.1562 172.008 46.1562C171.414 46.1562 170.88 46.0495 170.406 45.8359C169.932 45.6172 169.526 45.3151 169.188 44.9297C168.854 44.5391 168.599 44.0833 168.422 43.5625C168.245 43.0417 168.156 42.4766 168.156 41.8672ZM169.602 41.6875V41.8672C169.602 42.2891 169.651 42.6875 169.75 43.0625C169.849 43.4323 169.997 43.7604 170.195 44.0469C170.398 44.3333 170.651 44.5599 170.953 44.7266C171.255 44.888 171.607 44.9688 172.008 44.9688C172.404 44.9688 172.75 44.888 173.047 44.7266C173.349 44.5599 173.599 44.3333 173.797 44.0469C173.995 43.7604 174.143 43.4323 174.242 43.0625C174.346 42.6875 174.398 42.2891 174.398 41.8672V41.6875C174.398 41.2708 174.346 40.8776 174.242 40.5078C174.143 40.1328 173.992 39.8021 173.789 39.5156C173.591 39.224 173.341 38.9948 173.039 38.8281C172.742 38.6615 172.393 38.5781 171.992 38.5781C171.596 38.5781 171.247 38.6615 170.945 38.8281C170.648 38.9948 170.398 39.224 170.195 39.5156C169.997 39.8021 169.849 40.1328 169.75 40.5078C169.651 40.8776 169.602 41.2708 169.602 41.6875Z" fill="#E5E5E5"/>
<path d="M179.109 38.875V46H177.664V37.5469H179.07L179.109 38.875ZM181.75 37.5L181.742 38.8438C181.622 38.8177 181.508 38.8021 181.398 38.7969C181.294 38.7865 181.174 38.7812 181.039 38.7812C180.706 38.7812 180.411 38.8333 180.156 38.9375C179.901 39.0417 179.685 39.1875 179.508 39.375C179.331 39.5625 179.19 39.7865 179.086 40.0469C178.987 40.3021 178.922 40.5833 178.891 40.8906L178.484 41.125C178.484 40.6146 178.534 40.1354 178.633 39.6875C178.737 39.2396 178.896 38.8438 179.109 38.5C179.323 38.151 179.594 37.8802 179.922 37.6875C180.255 37.4896 180.651 37.3906 181.109 37.3906C181.214 37.3906 181.333 37.4036 181.469 37.4297C181.604 37.4505 181.698 37.474 181.75 37.5Z" fill="#E5E5E5"/>
<path d="M187.75 34.625H189.211L192.938 43.8984L196.656 34.625H198.125L193.5 46H192.359L187.75 34.625ZM187.273 34.625H188.562L188.773 41.5625V46H187.273V34.625ZM197.305 34.625H198.594V46H197.094V41.5625L197.305 34.625Z" fill="#E5E5E5"/>
<path d="M206.008 44.5547V40.2031C206.008 39.8698 205.94 39.5807 205.805 39.3359C205.674 39.0859 205.477 38.8932 205.211 38.7578C204.945 38.6224 204.617 38.5547 204.227 38.5547C203.862 38.5547 203.542 38.6172 203.266 38.7422C202.995 38.8672 202.781 39.0312 202.625 39.2344C202.474 39.4375 202.398 39.6562 202.398 39.8906H200.953C200.953 39.5885 201.031 39.2891 201.188 38.9922C201.344 38.6953 201.568 38.4271 201.859 38.1875C202.156 37.9427 202.51 37.75 202.922 37.6094C203.339 37.4635 203.802 37.3906 204.312 37.3906C204.927 37.3906 205.469 37.4948 205.938 37.7031C206.411 37.9115 206.781 38.2266 207.047 38.6484C207.318 39.0651 207.453 39.5885 207.453 40.2188V44.1562C207.453 44.4375 207.477 44.737 207.523 45.0547C207.576 45.3724 207.651 45.6458 207.75 45.875V46H206.242C206.169 45.8333 206.112 45.612 206.07 45.3359C206.029 45.0547 206.008 44.7943 206.008 44.5547ZM206.258 40.875L206.273 41.8906H204.812C204.401 41.8906 204.034 41.9245 203.711 41.9922C203.388 42.0547 203.117 42.151 202.898 42.2812C202.68 42.4115 202.513 42.5755 202.398 42.7734C202.284 42.9661 202.227 43.1927 202.227 43.4531C202.227 43.7188 202.286 43.9609 202.406 44.1797C202.526 44.3984 202.706 44.5729 202.945 44.7031C203.19 44.8281 203.49 44.8906 203.844 44.8906C204.286 44.8906 204.677 44.7969 205.016 44.6094C205.354 44.4219 205.622 44.1927 205.82 43.9219C206.023 43.651 206.133 43.388 206.148 43.1328L206.766 43.8281C206.729 44.0469 206.63 44.2891 206.469 44.5547C206.307 44.8203 206.091 45.0755 205.82 45.3203C205.555 45.5599 205.237 45.7604 204.867 45.9219C204.503 46.0781 204.091 46.1562 203.633 46.1562C203.06 46.1562 202.557 46.0443 202.125 45.8203C201.698 45.5964 201.365 45.2969 201.125 44.9219C200.891 44.5417 200.773 44.1172 200.773 43.6484C200.773 43.1953 200.862 42.7969 201.039 42.4531C201.216 42.1042 201.471 41.8151 201.805 41.5859C202.138 41.3516 202.539 41.1745 203.008 41.0547C203.477 40.9349 204 40.875 204.578 40.875H206.258Z" fill="#E5E5E5"/>
<path d="M213.109 44.9688C213.453 44.9688 213.771 44.8984 214.062 44.7578C214.354 44.6172 214.594 44.4245 214.781 44.1797C214.969 43.9297 215.076 43.6458 215.102 43.3281H216.477C216.451 43.8281 216.281 44.2943 215.969 44.7266C215.661 45.1536 215.258 45.5 214.758 45.7656C214.258 46.026 213.708 46.1562 213.109 46.1562C212.474 46.1562 211.919 46.0443 211.445 45.8203C210.977 45.5964 210.586 45.2891 210.273 44.8984C209.966 44.5078 209.734 44.0599 209.578 43.5547C209.427 43.0443 209.352 42.5052 209.352 41.9375V41.6094C209.352 41.0417 209.427 40.5052 209.578 40C209.734 39.4896 209.966 39.0391 210.273 38.6484C210.586 38.2578 210.977 37.9505 211.445 37.7266C211.919 37.5026 212.474 37.3906 213.109 37.3906C213.771 37.3906 214.349 37.526 214.844 37.7969C215.339 38.0625 215.727 38.4271 216.008 38.8906C216.294 39.349 216.451 39.8698 216.477 40.4531H215.102C215.076 40.1042 214.977 39.7891 214.805 39.5078C214.638 39.2266 214.409 39.0026 214.117 38.8359C213.831 38.6641 213.495 38.5781 213.109 38.5781C212.667 38.5781 212.294 38.6667 211.992 38.8438C211.695 39.0156 211.458 39.25 211.281 39.5469C211.109 39.8385 210.984 40.1641 210.906 40.5234C210.833 40.8776 210.797 41.2396 210.797 41.6094V41.9375C210.797 42.3073 210.833 42.6719 210.906 43.0312C210.979 43.3906 211.102 43.7161 211.273 44.0078C211.451 44.2995 211.688 44.5339 211.984 44.7109C212.286 44.8828 212.661 44.9688 213.109 44.9688Z" fill="#E5E5E5"/>
<path d="M90.8047 67.5391H89.4531V66.5781H90.75C91.3229 66.5781 91.7865 66.4974 92.1406 66.3359C92.4948 66.1745 92.7526 65.9505 92.9141 65.6641C93.0755 65.3776 93.1562 65.0469 93.1562 64.6719C93.1562 64.3125 93.0677 63.9844 92.8906 63.6875C92.7135 63.3854 92.4401 63.1458 92.0703 62.9688C91.7005 62.7865 91.224 62.6953 90.6406 62.6953C90.2031 62.6953 89.8073 62.7786 89.4531 62.9453C89.099 63.1068 88.8177 63.3333 88.6094 63.625C88.401 63.9115 88.2969 64.2422 88.2969 64.6172H86.7891C86.7891 64.1328 86.8906 63.6979 87.0938 63.3125C87.2969 62.9219 87.5755 62.5911 87.9297 62.3203C88.2839 62.0443 88.6927 61.8333 89.1562 61.6875C89.625 61.5417 90.1198 61.4688 90.6406 61.4688C91.25 61.4688 91.8021 61.5391 92.2969 61.6797C92.7917 61.8151 93.2161 62.0182 93.5703 62.2891C93.9245 62.5599 94.1953 62.8958 94.3828 63.2969C94.5703 63.6979 94.6641 64.1641 94.6641 64.6953C94.6641 65.0859 94.5729 65.4531 94.3906 65.7969C94.2083 66.1406 93.9479 66.4427 93.6094 66.7031C93.2708 66.9635 92.8646 67.1693 92.3906 67.3203C91.9167 67.4661 91.388 67.5391 90.8047 67.5391ZM89.4531 66.875H90.8047C91.4453 66.875 92.0156 66.9401 92.5156 67.0703C93.0156 67.2005 93.4375 67.3906 93.7812 67.6406C94.125 67.8906 94.3854 68.2005 94.5625 68.5703C94.7448 68.9349 94.8359 69.3542 94.8359 69.8281C94.8359 70.3594 94.7318 70.8307 94.5234 71.2422C94.3203 71.6536 94.0312 72.0026 93.6562 72.2891C93.2812 72.5755 92.8359 72.7917 92.3203 72.9375C91.8099 73.0833 91.25 73.1562 90.6406 73.1562C90.151 73.1562 89.6667 73.0938 89.1875 72.9688C88.7135 72.8385 88.2839 72.6406 87.8984 72.375C87.513 72.1042 87.2031 71.7604 86.9688 71.3438C86.7396 70.9271 86.625 70.4271 86.625 69.8438H88.1328C88.1328 70.224 88.237 70.5729 88.4453 70.8906C88.6589 71.2083 88.9531 71.4635 89.3281 71.6562C89.7031 71.8438 90.1406 71.9375 90.6406 71.9375C91.2135 71.9375 91.6979 71.849 92.0938 71.6719C92.4948 71.4896 92.7995 71.2422 93.0078 70.9297C93.2214 70.612 93.3281 70.2552 93.3281 69.8594C93.3281 69.5104 93.2708 69.2083 93.1562 68.9531C93.0469 68.6927 92.8828 68.4792 92.6641 68.3125C92.4505 68.1458 92.1823 68.0234 91.8594 67.9453C91.5417 67.862 91.1719 67.8203 90.75 67.8203H89.4531V66.875Z" fill="#E5E5E5"/>
<path d="M101.586 71.5547V67.2031C101.586 66.8698 101.518 66.5807 101.383 66.3359C101.253 66.0859 101.055 65.8932 100.789 65.7578C100.523 65.6224 100.195 65.5547 99.8047 65.5547C99.4401 65.5547 99.1198 65.6172 98.8438 65.7422C98.5729 65.8672 98.3594 66.0312 98.2031 66.2344C98.0521 66.4375 97.9766 66.6562 97.9766 66.8906H96.5312C96.5312 66.5885 96.6094 66.2891 96.7656 65.9922C96.9219 65.6953 97.1458 65.4271 97.4375 65.1875C97.7344 64.9427 98.0885 64.75 98.5 64.6094C98.9167 64.4635 99.3802 64.3906 99.8906 64.3906C100.505 64.3906 101.047 64.4948 101.516 64.7031C101.99 64.9115 102.359 65.2266 102.625 65.6484C102.896 66.0651 103.031 66.5885 103.031 67.2188V71.1562C103.031 71.4375 103.055 71.737 103.102 72.0547C103.154 72.3724 103.229 72.6458 103.328 72.875V73H101.82C101.747 72.8333 101.69 72.612 101.648 72.3359C101.607 72.0547 101.586 71.7943 101.586 71.5547ZM101.836 67.875L101.852 68.8906H100.391C99.9792 68.8906 99.612 68.9245 99.2891 68.9922C98.9661 69.0547 98.6953 69.151 98.4766 69.2812C98.2578 69.4115 98.0911 69.5755 97.9766 69.7734C97.862 69.9661 97.8047 70.1927 97.8047 70.4531C97.8047 70.7188 97.8646 70.9609 97.9844 71.1797C98.1042 71.3984 98.2839 71.5729 98.5234 71.7031C98.7682 71.8281 99.0677 71.8906 99.4219 71.8906C99.8646 71.8906 100.255 71.7969 100.594 71.6094C100.932 71.4219 101.201 71.1927 101.398 70.9219C101.602 70.651 101.711 70.388 101.727 70.1328L102.344 70.8281C102.307 71.0469 102.208 71.2891 102.047 71.5547C101.885 71.8203 101.669 72.0755 101.398 72.3203C101.133 72.5599 100.815 72.7604 100.445 72.9219C100.081 73.0781 99.6693 73.1562 99.2109 73.1562C98.638 73.1562 98.1354 73.0443 97.7031 72.8203C97.276 72.5964 96.9427 72.2969 96.7031 71.9219C96.4688 71.5417 96.3516 71.1172 96.3516 70.6484C96.3516 70.1953 96.4401 69.7969 96.6172 69.4531C96.7943 69.1042 97.0495 68.8151 97.3828 68.5859C97.7161 68.3516 98.1172 68.1745 98.5859 68.0547C99.0547 67.9349 99.5781 67.875 100.156 67.875H101.836Z" fill="#E5E5E5"/>
<path d="M109.273 69.2812H106.5L106.484 68.125H108.75C109.198 68.125 109.57 68.0807 109.867 67.9922C110.169 67.9036 110.396 67.7708 110.547 67.5938C110.698 67.4167 110.773 67.1979 110.773 66.9375C110.773 66.7344 110.729 66.5573 110.641 66.4062C110.557 66.25 110.43 66.1224 110.258 66.0234C110.086 65.9193 109.872 65.8438 109.617 65.7969C109.367 65.7448 109.073 65.7188 108.734 65.7188H106.883V73H105.438V64.5469H108.734C109.271 64.5469 109.753 64.5938 110.18 64.6875C110.612 64.7812 110.979 64.9245 111.281 65.1172C111.589 65.3047 111.823 65.5443 111.984 65.8359C112.146 66.1276 112.227 66.4714 112.227 66.8672C112.227 67.1224 112.174 67.3646 112.07 67.5938C111.966 67.8229 111.812 68.026 111.609 68.2031C111.406 68.3802 111.156 68.526 110.859 68.6406C110.562 68.75 110.221 68.8203 109.836 68.8516L109.273 69.2812ZM109.273 73H105.977L106.695 71.8281H109.273C109.674 71.8281 110.008 71.7786 110.273 71.6797C110.539 71.5755 110.737 71.4297 110.867 71.2422C111.003 71.0495 111.07 70.8203 111.07 70.5547C111.07 70.2891 111.003 70.0625 110.867 69.875C110.737 69.6823 110.539 69.5365 110.273 69.4375C110.008 69.3333 109.674 69.2812 109.273 69.2812H107.078L107.094 68.125H109.836L110.359 68.5625C110.823 68.599 111.216 68.7135 111.539 68.9062C111.862 69.099 112.107 69.3438 112.273 69.6406C112.44 69.9323 112.523 70.25 112.523 70.5938C112.523 70.9896 112.448 71.3385 112.297 71.6406C112.151 71.9427 111.938 72.1953 111.656 72.3984C111.375 72.5964 111.034 72.7474 110.633 72.8516C110.232 72.9505 109.779 73 109.273 73Z" fill="#E5E5E5"/>
<path d="M119.445 71.5547V67.2031C119.445 66.8698 119.378 66.5807 119.242 66.3359C119.112 66.0859 118.914 65.8932 118.648 65.7578C118.383 65.6224 118.055 65.5547 117.664 65.5547C117.299 65.5547 116.979 65.6172 116.703 65.7422C116.432 65.8672 116.219 66.0312 116.062 66.2344C115.911 66.4375 115.836 66.6562 115.836 66.8906H114.391C114.391 66.5885 114.469 66.2891 114.625 65.9922C114.781 65.6953 115.005 65.4271 115.297 65.1875C115.594 64.9427 115.948 64.75 116.359 64.6094C116.776 64.4635 117.24 64.3906 117.75 64.3906C118.365 64.3906 118.906 64.4948 119.375 64.7031C119.849 64.9115 120.219 65.2266 120.484 65.6484C120.755 66.0651 120.891 66.5885 120.891 67.2188V71.1562C120.891 71.4375 120.914 71.737 120.961 72.0547C121.013 72.3724 121.089 72.6458 121.188 72.875V73H119.68C119.607 72.8333 119.549 72.612 119.508 72.3359C119.466 72.0547 119.445 71.7943 119.445 71.5547ZM119.695 67.875L119.711 68.8906H118.25C117.839 68.8906 117.471 68.9245 117.148 68.9922C116.826 69.0547 116.555 69.151 116.336 69.2812C116.117 69.4115 115.951 69.5755 115.836 69.7734C115.721 69.9661 115.664 70.1927 115.664 70.4531C115.664 70.7188 115.724 70.9609 115.844 71.1797C115.964 71.3984 116.143 71.5729 116.383 71.7031C116.628 71.8281 116.927 71.8906 117.281 71.8906C117.724 71.8906 118.115 71.7969 118.453 71.6094C118.792 71.4219 119.06 71.1927 119.258 70.9219C119.461 70.651 119.57 70.388 119.586 70.1328L120.203 70.8281C120.167 71.0469 120.068 71.2891 119.906 71.5547C119.745 71.8203 119.529 72.0755 119.258 72.3203C118.992 72.5599 118.674 72.7604 118.305 72.9219C117.94 73.0781 117.529 73.1562 117.07 73.1562C116.497 73.1562 115.995 73.0443 115.562 72.8203C115.135 72.5964 114.802 72.2969 114.562 71.9219C114.328 71.5417 114.211 71.1172 114.211 70.6484C114.211 70.1953 114.299 69.7969 114.477 69.4531C114.654 69.1042 114.909 68.8151 115.242 68.5859C115.576 68.3516 115.977 68.1745 116.445 68.0547C116.914 67.9349 117.438 67.875 118.016 67.875H119.695Z" fill="#E5E5E5"/>
<path d="M128.898 68.2109V69.3828H124.43V68.2109H128.898ZM124.734 64.5469V73H123.289V64.5469H124.734ZM130.07 64.5469V73H128.617V64.5469H130.07Z" fill="#E5E5E5"/>
<path d="M135.844 64.5469V73H134.391V64.5469H135.844ZM138.68 64.5469V65.7188H131.609V64.5469H138.68Z" fill="#E5E5E5"/>
<path d="M144.961 71.5547V67.2031C144.961 66.8698 144.893 66.5807 144.758 66.3359C144.628 66.0859 144.43 65.8932 144.164 65.7578C143.898 65.6224 143.57 65.5547 143.18 65.5547C142.815 65.5547 142.495 65.6172 142.219 65.7422C141.948 65.8672 141.734 66.0312 141.578 66.2344C141.427 66.4375 141.352 66.6562 141.352 66.8906H139.906C139.906 66.5885 139.984 66.2891 140.141 65.9922C140.297 65.6953 140.521 65.4271 140.812 65.1875C141.109 64.9427 141.464 64.75 141.875 64.6094C142.292 64.4635 142.755 64.3906 143.266 64.3906C143.88 64.3906 144.422 64.4948 144.891 64.7031C145.365 64.9115 145.734 65.2266 146 65.6484C146.271 66.0651 146.406 66.5885 146.406 67.2188V71.1562C146.406 71.4375 146.43 71.737 146.477 72.0547C146.529 72.3724 146.604 72.6458 146.703 72.875V73H145.195C145.122 72.8333 145.065 72.612 145.023 72.3359C144.982 72.0547 144.961 71.7943 144.961 71.5547ZM145.211 67.875L145.227 68.8906H143.766C143.354 68.8906 142.987 68.9245 142.664 68.9922C142.341 69.0547 142.07 69.151 141.852 69.2812C141.633 69.4115 141.466 69.5755 141.352 69.7734C141.237 69.9661 141.18 70.1927 141.18 70.4531C141.18 70.7188 141.24 70.9609 141.359 71.1797C141.479 71.3984 141.659 71.5729 141.898 71.7031C142.143 71.8281 142.443 71.8906 142.797 71.8906C143.24 71.8906 143.63 71.7969 143.969 71.6094C144.307 71.4219 144.576 71.1927 144.773 70.9219C144.977 70.651 145.086 70.388 145.102 70.1328L145.719 70.8281C145.682 71.0469 145.583 71.2891 145.422 71.5547C145.26 71.8203 145.044 72.0755 144.773 72.3203C144.508 72.5599 144.19 72.7604 143.82 72.9219C143.456 73.0781 143.044 73.1562 142.586 73.1562C142.013 73.1562 141.51 73.0443 141.078 72.8203C140.651 72.5964 140.318 72.2969 140.078 71.9219C139.844 71.5417 139.727 71.1172 139.727 70.6484C139.727 70.1953 139.815 69.7969 139.992 69.4531C140.169 69.1042 140.424 68.8151 140.758 68.5859C141.091 68.3516 141.492 68.1745 141.961 68.0547C142.43 67.9349 142.953 67.875 143.531 67.875H145.211Z" fill="#E5E5E5"/>
<path d="M151.242 69.3203L148.039 64.5469H149.781L151.969 68.0469H153.656L153.445 69.3203H151.242ZM152.031 69.1719L149.578 73H147.75L151.117 68.125L152.031 69.1719ZM154.398 64.5469V73H152.953V64.5469H154.398ZM159.328 64.5469L156.125 69.3203H153.922L153.695 68.0469H155.391L157.578 64.5469H159.328ZM157.781 73L155.32 69.1719L156.25 68.125L159.609 73H157.781Z" fill="#E5E5E5"/>
<path d="M162.508 70.7109L166.406 64.5469H167.859V73H166.406V66.8359L162.508 73H161.07V64.5469H162.508V70.7109Z" fill="#E5E5E5"/>
<path d="M173.625 64.5469V73H172.172V64.5469H173.625ZM176.461 64.5469V65.7188H169.391V64.5469H176.461Z" fill="#E5E5E5"/>
<path d="M179.445 70.7109L183.344 64.5469H184.797V73H183.344V66.8359L179.445 73H178.008V64.5469H179.445V70.7109Z" fill="#E5E5E5"/>
<path d="M192.609 64.5469H194.055L193.93 67.7109C193.898 68.513 193.807 69.2057 193.656 69.7891C193.505 70.3724 193.312 70.8698 193.078 71.2812C192.844 71.6875 192.581 72.0286 192.289 72.3047C192.003 72.5807 191.706 72.8125 191.398 73H190.68L190.719 71.8203L191.016 71.8125C191.188 71.6094 191.354 71.401 191.516 71.1875C191.677 70.9688 191.826 70.7109 191.961 70.4141C192.096 70.112 192.208 69.7448 192.297 69.3125C192.391 68.875 192.451 68.3411 192.477 67.7109L192.609 64.5469ZM192.969 64.5469H198.055V73H196.609V65.8828H192.969V64.5469ZM190.352 71.8125H199.141V75.4922H197.695V73H191.797V75.4922H190.344L190.352 71.8125Z" fill="#E5E5E5"/>
<path d="M206.391 64.5469V65.7422H202.305V64.5469H206.391ZM207.664 64.5469V73H206.219V64.5469H207.664ZM201.953 64.5469H203.406L203.188 68.625C203.151 69.2552 203.091 69.8125 203.008 70.2969C202.93 70.776 202.82 71.1875 202.68 71.5312C202.544 71.875 202.372 72.1562 202.164 72.375C201.961 72.5885 201.716 72.7474 201.43 72.8516C201.143 72.9505 200.812 73 200.438 73H199.984V71.7266L200.297 71.7031C200.521 71.6875 200.711 71.6354 200.867 71.5469C201.029 71.4583 201.164 71.3281 201.273 71.1562C201.383 70.9792 201.471 70.7526 201.539 70.4766C201.612 70.2005 201.667 69.8724 201.703 69.4922C201.745 69.112 201.776 68.6693 201.797 68.1641L201.953 64.5469Z" fill="#E5E5E5"/>
<path d="M211.703 68.9688H213.266L210.82 73H209.258L211.703 68.9688ZM212.914 64.5469H216.445V73H215V65.7188H212.914C212.503 65.7188 212.167 65.7891 211.906 65.9297C211.646 66.0651 211.456 66.2422 211.336 66.4609C211.216 66.6797 211.156 66.9062 211.156 67.1406C211.156 67.3698 211.211 67.5911 211.32 67.8047C211.43 68.013 211.602 68.1849 211.836 68.3203C212.07 68.4557 212.372 68.5234 212.742 68.5234H215.391V69.7109H212.742C212.258 69.7109 211.828 69.6458 211.453 69.5156C211.078 69.3854 210.76 69.2057 210.5 68.9766C210.24 68.7422 210.042 68.4688 209.906 68.1562C209.771 67.8385 209.703 67.4948 209.703 67.125C209.703 66.7552 209.773 66.4141 209.914 66.1016C210.06 65.7891 210.268 65.5156 210.539 65.2812C210.815 65.0469 211.151 64.8672 211.547 64.7422C211.948 64.612 212.404 64.5469 212.914 64.5469Z" fill="#E5E5E5"/>
<path d="M223.438 61.625H224.898L228.625 70.8984L232.344 61.625H233.812L229.188 73H228.047L223.438 61.625ZM222.961 61.625H224.25L224.461 68.5625V73H222.961V61.625ZM232.992 61.625H234.281V73H232.781V68.5625L232.992 61.625Z" fill="#E5E5E5"/>
<path d="M241.695 71.5547V67.2031C241.695 66.8698 241.628 66.5807 241.492 66.3359C241.362 66.0859 241.164 65.8932 240.898 65.7578C240.633 65.6224 240.305 65.5547 239.914 65.5547C239.549 65.5547 239.229 65.6172 238.953 65.7422C238.682 65.8672 238.469 66.0312 238.312 66.2344C238.161 66.4375 238.086 66.6562 238.086 66.8906H236.641C236.641 66.5885 236.719 66.2891 236.875 65.9922C237.031 65.6953 237.255 65.4271 237.547 65.1875C237.844 64.9427 238.198 64.75 238.609 64.6094C239.026 64.4635 239.49 64.3906 240 64.3906C240.615 64.3906 241.156 64.4948 241.625 64.7031C242.099 64.9115 242.469 65.2266 242.734 65.6484C243.005 66.0651 243.141 66.5885 243.141 67.2188V71.1562C243.141 71.4375 243.164 71.737 243.211 72.0547C243.263 72.3724 243.339 72.6458 243.438 72.875V73H241.93C241.857 72.8333 241.799 72.612 241.758 72.3359C241.716 72.0547 241.695 71.7943 241.695 71.5547ZM241.945 67.875L241.961 68.8906H240.5C240.089 68.8906 239.721 68.9245 239.398 68.9922C239.076 69.0547 238.805 69.151 238.586 69.2812C238.367 69.4115 238.201 69.5755 238.086 69.7734C237.971 69.9661 237.914 70.1927 237.914 70.4531C237.914 70.7188 237.974 70.9609 238.094 71.1797C238.214 71.3984 238.393 71.5729 238.633 71.7031C238.878 71.8281 239.177 71.8906 239.531 71.8906C239.974 71.8906 240.365 71.7969 240.703 71.6094C241.042 71.4219 241.31 71.1927 241.508 70.9219C241.711 70.651 241.82 70.388 241.836 70.1328L242.453 70.8281C242.417 71.0469 242.318 71.2891 242.156 71.5547C241.995 71.8203 241.779 72.0755 241.508 72.3203C241.242 72.5599 240.924 72.7604 240.555 72.9219C240.19 73.0781 239.779 73.1562 239.32 73.1562C238.747 73.1562 238.245 73.0443 237.812 72.8203C237.385 72.5964 237.052 72.2969 236.812 71.9219C236.578 71.5417 236.461 71.1172 236.461 70.6484C236.461 70.1953 236.549 69.7969 236.727 69.4531C236.904 69.1042 237.159 68.8151 237.492 68.5859C237.826 68.3516 238.227 68.1745 238.695 68.0547C239.164 67.9349 239.688 67.875 240.266 67.875H241.945Z" fill="#E5E5E5"/>
<path d="M248.797 71.9688C249.141 71.9688 249.458 71.8984 249.75 71.7578C250.042 71.6172 250.281 71.4245 250.469 71.1797C250.656 70.9297 250.763 70.6458 250.789 70.3281H252.164C252.138 70.8281 251.969 71.2943 251.656 71.7266C251.349 72.1536 250.945 72.5 250.445 72.7656C249.945 73.026 249.396 73.1562 248.797 73.1562C248.161 73.1562 247.607 73.0443 247.133 72.8203C246.664 72.5964 246.273 72.2891 245.961 71.8984C245.654 71.5078 245.422 71.0599 245.266 70.5547C245.115 70.0443 245.039 69.5052 245.039 68.9375V68.6094C245.039 68.0417 245.115 67.5052 245.266 67C245.422 66.4896 245.654 66.0391 245.961 65.6484C246.273 65.2578 246.664 64.9505 247.133 64.7266C247.607 64.5026 248.161 64.3906 248.797 64.3906C249.458 64.3906 250.036 64.526 250.531 64.7969C251.026 65.0625 251.414 65.4271 251.695 65.8906C251.982 66.349 252.138 66.8698 252.164 67.4531H250.789C250.763 67.1042 250.664 66.7891 250.492 66.5078C250.326 66.2266 250.096 66.0026 249.805 65.8359C249.518 65.6641 249.182 65.5781 248.797 65.5781C248.354 65.5781 247.982 65.6667 247.68 65.8438C247.383 66.0156 247.146 66.25 246.969 66.5469C246.797 66.8385 246.672 67.1641 246.594 67.5234C246.521 67.8776 246.484 68.2396 246.484 68.6094V68.9375C246.484 69.3073 246.521 69.6719 246.594 70.0312C246.667 70.3906 246.789 70.7161 246.961 71.0078C247.138 71.2995 247.375 71.5339 247.672 71.7109C247.974 71.8828 248.349 71.9688 248.797 71.9688Z" fill="#E5E5E5"/>
<path d="M65.1377 48.2508C64.9453 48.3993 61.5492 50.3036 61.5492 54.538C61.5492 59.4356 65.8707 61.1683 66 61.2112C65.9801 61.3168 65.3135 63.5842 63.7215 65.8944C62.3021 67.9274 60.8196 69.9571 58.5643 69.9571C56.3091 69.9571 55.7287 68.6535 53.1252 68.6535C50.588 68.6535 49.6859 70 47.623 70C45.5601 70 44.1207 68.1188 42.4658 65.8086C40.5488 63.0957 39 58.8812 39 54.8812C39 48.4653 43.1921 45.0627 47.3179 45.0627C49.5101 45.0627 51.3376 46.495 52.7139 46.495C54.024 46.495 56.0669 44.9769 58.561 44.9769C59.5062 44.9769 62.9023 45.0627 65.1377 48.2508ZM57.377 42.2607C58.4084 41.0429 59.1381 39.3531 59.1381 37.6634C59.1381 37.429 59.1182 37.1914 59.0751 37C57.3969 37.0627 55.4003 38.1122 54.1964 39.5017C53.2512 40.571 52.369 42.2607 52.369 43.9736C52.369 44.231 52.4121 44.4884 52.432 44.571C52.5381 44.5908 52.7106 44.6139 52.8831 44.6139C54.3888 44.6139 56.2825 43.6106 57.377 42.2607Z" fill="#EDEDED"/>
<defs>
<filter id="filter0_d_41_13" x="8" y="10" width="323" height="98" filterUnits="userSpaceOnUse" color-interpolation-filters="sRGB">
<feFlood flood-opacity="0" result="BackgroundImageFix"/>
<feColorMatrix in="SourceAlpha" type="matrix" values="0 0 0 0 0 0 0 0 0 0 0 0 0 0 0 0 0 0 127 0" result="hardAlpha"/>
<feOffset dx="2" dy="2"/>
<feGaussianBlur stdDeviation="2"/>
<feComposite in2="hardAlpha" operator="out"/>
<feColorMatrix type="matrix" values="0 0 0 0 0 0 0 0 0 0 0 0 0 0 0 0 0 0 0.25 0"/>
<feBlend mode="normal" in2="BackgroundImageFix" result="effect1_dropShadow_41_13"/>
<feBlend mode="normal" in="SourceGraphic" in2="effect1_dropShadow_41_13" result="shape"/>
</filter>
<linearGradient id="paint0_linear_41_13" x1="167.5" y1="12" x2="167.5" y2="102" gradientUnits="userSpaceOnUse">
<stop stop-color="#B20101"/>
<stop offset="1"/>
</linearGradient>
</defs>
</svg>
