<svg width="337" height="115" viewBox="0 0 337 115" fill="none" xmlns="http://www.w3.org/2000/svg">
<g filter="url(#filter0_d_41_12)">
<path d="M10 22C10 16.4772 14.4772 12 20 12H315C320.523 12 325 16.4772 325 22V92C325 97.5228 320.523 102 315 102H20C14.4772 102 10 97.5228 10 92V22Z" fill="url(#paint0_linear_41_12)"/>
</g>
<path d="M91.7109 48H89.3359L89.3516 46.7734H91.7109C92.5234 46.7734 93.2005 46.6042 93.7422 46.2656C94.2839 45.9219 94.6901 45.4427 94.9609 44.8281C95.237 44.2083 95.375 43.4844 95.375 42.6562V41.9609C95.375 41.3099 95.2969 40.7318 95.1406 40.2266C94.9844 39.7161 94.7552 39.2865 94.4531 38.9375C94.151 38.5833 93.7812 38.3151 93.3438 38.1328C92.9115 37.9505 92.4141 37.8594 91.8516 37.8594H89.2891V36.625H91.8516C92.5964 36.625 93.276 36.75 93.8906 37C94.5052 37.2448 95.0339 37.6016 95.4766 38.0703C95.9245 38.5339 96.2682 39.0964 96.5078 39.7578C96.7474 40.4141 96.8672 41.1536 96.8672 41.9766V42.6562C96.8672 43.4792 96.7474 44.2214 96.5078 44.8828C96.2682 45.5391 95.9219 46.099 95.4688 46.5625C95.0208 47.026 94.4792 47.3828 93.8438 47.6328C93.2135 47.8776 92.5026 48 91.7109 48ZM90.1406 36.625V48H88.6328V36.625H90.1406Z" fill="#E5E5E5"/>
<path d="M98.5312 43.8672V43.6875C98.5312 43.0781 98.6198 42.513 98.7969 41.9922C98.974 41.4661 99.2292 41.0104 99.5625 40.625C99.8958 40.2344 100.299 39.9323 100.773 39.7188C101.247 39.5 101.779 39.3906 102.367 39.3906C102.961 39.3906 103.495 39.5 103.969 39.7188C104.448 39.9323 104.854 40.2344 105.188 40.625C105.526 41.0104 105.784 41.4661 105.961 41.9922C106.138 42.513 106.227 43.0781 106.227 43.6875V43.8672C106.227 44.4766 106.138 45.0417 105.961 45.5625C105.784 46.0833 105.526 46.5391 105.188 46.9297C104.854 47.3151 104.451 47.6172 103.977 47.8359C103.508 48.0495 102.977 48.1562 102.383 48.1562C101.789 48.1562 101.255 48.0495 100.781 47.8359C100.307 47.6172 99.901 47.3151 99.5625 46.9297C99.2292 46.5391 98.974 46.0833 98.7969 45.5625C98.6198 45.0417 98.5312 44.4766 98.5312 43.8672ZM99.9766 43.6875V43.8672C99.9766 44.2891 100.026 44.6875 100.125 45.0625C100.224 45.4323 100.372 45.7604 100.57 46.0469C100.773 46.3333 101.026 46.5599 101.328 46.7266C101.63 46.888 101.982 46.9688 102.383 46.9688C102.779 46.9688 103.125 46.888 103.422 46.7266C103.724 46.5599 103.974 46.3333 104.172 46.0469C104.37 45.7604 104.518 45.4323 104.617 45.0625C104.721 44.6875 104.773 44.2891 104.773 43.8672V43.6875C104.773 43.2708 104.721 42.8776 104.617 42.5078C104.518 42.1328 104.367 41.8021 104.164 41.5156C103.966 41.224 103.716 40.9948 103.414 40.8281C103.117 40.6615 102.768 40.5781 102.367 40.5781C101.971 40.5781 101.622 40.6615 101.32 40.8281C101.023 40.9948 100.773 41.224 100.57 41.5156C100.372 41.8021 100.224 42.1328 100.125 42.5078C100.026 42.8776 99.9766 43.2708 99.9766 43.6875Z" fill="#E5E5E5"/>
<path d="M110.18 46.5L112.352 39.5469H113.305L113.117 40.9297L110.906 48H109.977L110.18 46.5ZM108.719 39.5469L110.57 46.5781L110.703 48H109.727L107.273 39.5469H108.719ZM115.383 46.5234L117.148 39.5469H118.586L116.133 48H115.164L115.383 46.5234ZM113.516 39.5469L115.641 46.3828L115.883 48H114.961L112.688 40.9141L112.5 39.5469H113.516Z" fill="#E5E5E5"/>
<path d="M121.516 41.3516V48H120.07V39.5469H121.438L121.516 41.3516ZM121.172 43.4531L120.57 43.4297C120.576 42.8516 120.661 42.3177 120.828 41.8281C120.995 41.3333 121.229 40.9036 121.531 40.5391C121.833 40.1745 122.193 39.8932 122.609 39.6953C123.031 39.4922 123.497 39.3906 124.008 39.3906C124.424 39.3906 124.799 39.4479 125.133 39.5625C125.466 39.6719 125.75 39.849 125.984 40.0938C126.224 40.3385 126.406 40.6562 126.531 41.0469C126.656 41.4323 126.719 41.9036 126.719 42.4609V48H125.266V42.4453C125.266 42.0026 125.201 41.6484 125.07 41.3828C124.94 41.112 124.75 40.9167 124.5 40.7969C124.25 40.6719 123.943 40.6094 123.578 40.6094C123.219 40.6094 122.891 40.6849 122.594 40.8359C122.302 40.987 122.049 41.1953 121.836 41.4609C121.628 41.7266 121.464 42.0312 121.344 42.375C121.229 42.7135 121.172 43.0729 121.172 43.4531Z" fill="#E5E5E5"/>
<path d="M130.484 36V48H129.031V36H130.484Z" fill="#E5E5E5"/>
<path d="M132.422 43.8672V43.6875C132.422 43.0781 132.51 42.513 132.688 41.9922C132.865 41.4661 133.12 41.0104 133.453 40.625C133.786 40.2344 134.19 39.9323 134.664 39.7188C135.138 39.5 135.669 39.3906 136.258 39.3906C136.852 39.3906 137.385 39.5 137.859 39.7188C138.339 39.9323 138.745 40.2344 139.078 40.625C139.417 41.0104 139.674 41.4661 139.852 41.9922C140.029 42.513 140.117 43.0781 140.117 43.6875V43.8672C140.117 44.4766 140.029 45.0417 139.852 45.5625C139.674 46.0833 139.417 46.5391 139.078 46.9297C138.745 47.3151 138.341 47.6172 137.867 47.8359C137.398 48.0495 136.867 48.1562 136.273 48.1562C135.68 48.1562 135.146 48.0495 134.672 47.8359C134.198 47.6172 133.792 47.3151 133.453 46.9297C133.12 46.5391 132.865 46.0833 132.688 45.5625C132.51 45.0417 132.422 44.4766 132.422 43.8672ZM133.867 43.6875V43.8672C133.867 44.2891 133.917 44.6875 134.016 45.0625C134.115 45.4323 134.263 45.7604 134.461 46.0469C134.664 46.3333 134.917 46.5599 135.219 46.7266C135.521 46.888 135.872 46.9688 136.273 46.9688C136.669 46.9688 137.016 46.888 137.312 46.7266C137.615 46.5599 137.865 46.3333 138.062 46.0469C138.26 45.7604 138.409 45.4323 138.508 45.0625C138.612 44.6875 138.664 44.2891 138.664 43.8672V43.6875C138.664 43.2708 138.612 42.8776 138.508 42.5078C138.409 42.1328 138.258 41.8021 138.055 41.5156C137.857 41.224 137.607 40.9948 137.305 40.8281C137.008 40.6615 136.659 40.5781 136.258 40.5781C135.862 40.5781 135.513 40.6615 135.211 40.8281C134.914 40.9948 134.664 41.224 134.461 41.5156C134.263 41.8021 134.115 42.1328 134.016 42.5078C133.917 42.8776 133.867 43.2708 133.867 43.6875Z" fill="#E5E5E5"/>
<path d="M146.914 46.5547V42.2031C146.914 41.8698 146.846 41.5807 146.711 41.3359C146.581 41.0859 146.383 40.8932 146.117 40.7578C145.852 40.6224 145.523 40.5547 145.133 40.5547C144.768 40.5547 144.448 40.6172 144.172 40.7422C143.901 40.8672 143.688 41.0312 143.531 41.2344C143.38 41.4375 143.305 41.6562 143.305 41.8906H141.859C141.859 41.5885 141.938 41.2891 142.094 40.9922C142.25 40.6953 142.474 40.4271 142.766 40.1875C143.062 39.9427 143.417 39.75 143.828 39.6094C144.245 39.4635 144.708 39.3906 145.219 39.3906C145.833 39.3906 146.375 39.4948 146.844 39.7031C147.318 39.9115 147.688 40.2266 147.953 40.6484C148.224 41.0651 148.359 41.5885 148.359 42.2188V46.1562C148.359 46.4375 148.383 46.737 148.43 47.0547C148.482 47.3724 148.557 47.6458 148.656 47.875V48H147.148C147.076 47.8333 147.018 47.612 146.977 47.3359C146.935 47.0547 146.914 46.7943 146.914 46.5547ZM147.164 42.875L147.18 43.8906H145.719C145.307 43.8906 144.94 43.9245 144.617 43.9922C144.294 44.0547 144.023 44.151 143.805 44.2812C143.586 44.4115 143.419 44.5755 143.305 44.7734C143.19 44.9661 143.133 45.1927 143.133 45.4531C143.133 45.7188 143.193 45.9609 143.312 46.1797C143.432 46.3984 143.612 46.5729 143.852 46.7031C144.096 46.8281 144.396 46.8906 144.75 46.8906C145.193 46.8906 145.583 46.7969 145.922 46.6094C146.26 46.4219 146.529 46.1927 146.727 45.9219C146.93 45.651 147.039 45.388 147.055 45.1328L147.672 45.8281C147.635 46.0469 147.536 46.2891 147.375 46.5547C147.214 46.8203 146.997 47.0755 146.727 47.3203C146.461 47.5599 146.143 47.7604 145.773 47.9219C145.409 48.0781 144.997 48.1562 144.539 48.1562C143.966 48.1562 143.464 48.0443 143.031 47.8203C142.604 47.5964 142.271 47.2969 142.031 46.9219C141.797 46.5417 141.68 46.1172 141.68 45.6484C141.68 45.1953 141.768 44.7969 141.945 44.4531C142.122 44.1042 142.378 43.8151 142.711 43.5859C143.044 43.3516 143.445 43.1745 143.914 43.0547C144.383 42.9349 144.906 42.875 145.484 42.875H147.164Z" fill="#E5E5E5"/>
<path d="M155.961 46.3594V36H157.414V48H156.086L155.961 46.3594ZM150.273 43.8672V43.7031C150.273 43.0573 150.352 42.4714 150.508 41.9453C150.669 41.4141 150.896 40.9583 151.188 40.5781C151.484 40.1979 151.836 39.9062 152.242 39.7031C152.654 39.4948 153.112 39.3906 153.617 39.3906C154.148 39.3906 154.612 39.4844 155.008 39.6719C155.409 39.8542 155.747 40.1224 156.023 40.4766C156.305 40.8255 156.526 41.2474 156.688 41.7422C156.849 42.237 156.961 42.7969 157.023 43.4219V44.1406C156.966 44.7604 156.854 45.3177 156.688 45.8125C156.526 46.3073 156.305 46.7292 156.023 47.0781C155.747 47.4271 155.409 47.6953 155.008 47.8828C154.607 48.0651 154.138 48.1562 153.602 48.1562C153.107 48.1562 152.654 48.0495 152.242 47.8359C151.836 47.6224 151.484 47.3229 151.188 46.9375C150.896 46.5521 150.669 46.099 150.508 45.5781C150.352 45.0521 150.273 44.4818 150.273 43.8672ZM151.727 43.7031V43.8672C151.727 44.2891 151.768 44.6849 151.852 45.0547C151.94 45.4245 152.076 45.75 152.258 46.0312C152.44 46.3125 152.672 46.5339 152.953 46.6953C153.234 46.8516 153.57 46.9297 153.961 46.9297C154.44 46.9297 154.833 46.8281 155.141 46.625C155.453 46.4219 155.703 46.1536 155.891 45.8203C156.078 45.487 156.224 45.125 156.328 44.7344V42.8516C156.266 42.5651 156.174 42.2891 156.055 42.0234C155.94 41.7526 155.789 41.513 155.602 41.3047C155.419 41.0911 155.193 40.9219 154.922 40.7969C154.656 40.6719 154.341 40.6094 153.977 40.6094C153.581 40.6094 153.24 40.6927 152.953 40.8594C152.672 41.0208 152.44 41.2448 152.258 41.5312C152.076 41.8125 151.94 42.1406 151.852 42.5156C151.768 42.8854 151.727 43.2812 151.727 43.7031Z" fill="#E5E5E5"/>
<path d="M165.789 48H164.344V38.6562C164.344 38.0469 164.453 37.5339 164.672 37.1172C164.896 36.6953 165.216 36.3776 165.633 36.1641C166.049 35.9453 166.544 35.8359 167.117 35.8359C167.284 35.8359 167.451 35.8464 167.617 35.8672C167.789 35.888 167.956 35.9193 168.117 35.9609L168.039 37.1406C167.93 37.1146 167.805 37.0964 167.664 37.0859C167.529 37.0755 167.393 37.0703 167.258 37.0703C166.951 37.0703 166.685 37.1328 166.461 37.2578C166.242 37.3776 166.076 37.5547 165.961 37.7891C165.846 38.0234 165.789 38.3125 165.789 38.6562V48ZM167.586 39.5469V40.6562H163.008V39.5469H167.586Z" fill="#E5E5E5"/>
<path d="M168.812 43.8672V43.6875C168.812 43.0781 168.901 42.513 169.078 41.9922C169.255 41.4661 169.51 41.0104 169.844 40.625C170.177 40.2344 170.581 39.9323 171.055 39.7188C171.529 39.5 172.06 39.3906 172.648 39.3906C173.242 39.3906 173.776 39.5 174.25 39.7188C174.729 39.9323 175.135 40.2344 175.469 40.625C175.807 41.0104 176.065 41.4661 176.242 41.9922C176.419 42.513 176.508 43.0781 176.508 43.6875V43.8672C176.508 44.4766 176.419 45.0417 176.242 45.5625C176.065 46.0833 175.807 46.5391 175.469 46.9297C175.135 47.3151 174.732 47.6172 174.258 47.8359C173.789 48.0495 173.258 48.1562 172.664 48.1562C172.07 48.1562 171.536 48.0495 171.062 47.8359C170.589 47.6172 170.182 47.3151 169.844 46.9297C169.51 46.5391 169.255 46.0833 169.078 45.5625C168.901 45.0417 168.812 44.4766 168.812 43.8672ZM170.258 43.6875V43.8672C170.258 44.2891 170.307 44.6875 170.406 45.0625C170.505 45.4323 170.654 45.7604 170.852 46.0469C171.055 46.3333 171.307 46.5599 171.609 46.7266C171.911 46.888 172.263 46.9688 172.664 46.9688C173.06 46.9688 173.406 46.888 173.703 46.7266C174.005 46.5599 174.255 46.3333 174.453 46.0469C174.651 45.7604 174.799 45.4323 174.898 45.0625C175.003 44.6875 175.055 44.2891 175.055 43.8672V43.6875C175.055 43.2708 175.003 42.8776 174.898 42.5078C174.799 42.1328 174.648 41.8021 174.445 41.5156C174.247 41.224 173.997 40.9948 173.695 40.8281C173.398 40.6615 173.049 40.5781 172.648 40.5781C172.253 40.5781 171.904 40.6615 171.602 40.8281C171.305 40.9948 171.055 41.224 170.852 41.5156C170.654 41.8021 170.505 42.1328 170.406 42.5078C170.307 42.8776 170.258 43.2708 170.258 43.6875Z" fill="#E5E5E5"/>
<path d="M179.766 40.875V48H178.32V39.5469H179.727L179.766 40.875ZM182.406 39.5L182.398 40.8438C182.279 40.8177 182.164 40.8021 182.055 40.7969C181.951 40.7865 181.831 40.7812 181.695 40.7812C181.362 40.7812 181.068 40.8333 180.812 40.9375C180.557 41.0417 180.341 41.1875 180.164 41.375C179.987 41.5625 179.846 41.7865 179.742 42.0469C179.643 42.3021 179.578 42.5833 179.547 42.8906L179.141 43.125C179.141 42.6146 179.19 42.1354 179.289 41.6875C179.393 41.2396 179.552 40.8438 179.766 40.5C179.979 40.151 180.25 39.8802 180.578 39.6875C180.911 39.4896 181.307 39.3906 181.766 39.3906C181.87 39.3906 181.99 39.4036 182.125 39.4297C182.26 39.4505 182.354 39.474 182.406 39.5Z" fill="#E5E5E5"/>
<path d="M190.922 44.5625L193.18 36.625H194.273L193.641 39.7109L191.211 48H190.125L190.922 44.5625ZM188.586 36.625L190.383 44.4062L190.922 48H189.844L187.086 36.625H188.586ZM197.195 44.3984L198.953 36.625H200.461L197.711 48H196.633L197.195 44.3984ZM194.438 36.625L196.633 44.5625L197.43 48H196.344L194 39.7109L193.359 36.625H194.438Z" fill="#E5E5E5"/>
<path d="M203.484 39.5469V48H202.031V39.5469H203.484ZM201.922 37.3047C201.922 37.0703 201.992 36.8724 202.133 36.7109C202.279 36.5495 202.492 36.4688 202.773 36.4688C203.049 36.4688 203.26 36.5495 203.406 36.7109C203.557 36.8724 203.633 37.0703 203.633 37.3047C203.633 37.5286 203.557 37.7214 203.406 37.8828C203.26 38.0391 203.049 38.1172 202.773 38.1172C202.492 38.1172 202.279 38.0391 202.133 37.8828C201.992 37.7214 201.922 37.5286 201.922 37.3047Z" fill="#E5E5E5"/>
<path d="M207.25 41.3516V48H205.805V39.5469H207.172L207.25 41.3516ZM206.906 43.4531L206.305 43.4297C206.31 42.8516 206.396 42.3177 206.562 41.8281C206.729 41.3333 206.964 40.9036 207.266 40.5391C207.568 40.1745 207.927 39.8932 208.344 39.6953C208.766 39.4922 209.232 39.3906 209.742 39.3906C210.159 39.3906 210.534 39.4479 210.867 39.5625C211.201 39.6719 211.484 39.849 211.719 40.0938C211.958 40.3385 212.141 40.6562 212.266 41.0469C212.391 41.4323 212.453 41.9036 212.453 42.4609V48H211V42.4453C211 42.0026 210.935 41.6484 210.805 41.3828C210.674 41.112 210.484 40.9167 210.234 40.7969C209.984 40.6719 209.677 40.6094 209.312 40.6094C208.953 40.6094 208.625 40.6849 208.328 40.8359C208.036 40.987 207.784 41.1953 207.57 41.4609C207.362 41.7266 207.198 42.0312 207.078 42.375C206.964 42.7135 206.906 43.0729 206.906 43.4531Z" fill="#E5E5E5"/>
<path d="M219.977 46.3594V36H221.43V48H220.102L219.977 46.3594ZM214.289 43.8672V43.7031C214.289 43.0573 214.367 42.4714 214.523 41.9453C214.685 41.4141 214.911 40.9583 215.203 40.5781C215.5 40.1979 215.852 39.9062 216.258 39.7031C216.669 39.4948 217.128 39.3906 217.633 39.3906C218.164 39.3906 218.628 39.4844 219.023 39.6719C219.424 39.8542 219.763 40.1224 220.039 40.4766C220.32 40.8255 220.542 41.2474 220.703 41.7422C220.865 42.237 220.977 42.7969 221.039 43.4219V44.1406C220.982 44.7604 220.87 45.3177 220.703 45.8125C220.542 46.3073 220.32 46.7292 220.039 47.0781C219.763 47.4271 219.424 47.6953 219.023 47.8828C218.622 48.0651 218.154 48.1562 217.617 48.1562C217.122 48.1562 216.669 48.0495 216.258 47.8359C215.852 47.6224 215.5 47.3229 215.203 46.9375C214.911 46.5521 214.685 46.099 214.523 45.5781C214.367 45.0521 214.289 44.4818 214.289 43.8672ZM215.742 43.7031V43.8672C215.742 44.2891 215.784 44.6849 215.867 45.0547C215.956 45.4245 216.091 45.75 216.273 46.0312C216.456 46.3125 216.688 46.5339 216.969 46.6953C217.25 46.8516 217.586 46.9297 217.977 46.9297C218.456 46.9297 218.849 46.8281 219.156 46.625C219.469 46.4219 219.719 46.1536 219.906 45.8203C220.094 45.487 220.24 45.125 220.344 44.7344V42.8516C220.281 42.5651 220.19 42.2891 220.07 42.0234C219.956 41.7526 219.805 41.513 219.617 41.3047C219.435 41.0911 219.208 40.9219 218.938 40.7969C218.672 40.6719 218.357 40.6094 217.992 40.6094C217.596 40.6094 217.255 40.6927 216.969 40.8594C216.688 41.0208 216.456 41.2448 216.273 41.5312C216.091 41.8125 215.956 42.1406 215.867 42.5156C215.784 42.8854 215.742 43.2812 215.742 43.7031Z" fill="#E5E5E5"/>
<path d="M223.297 43.8672V43.6875C223.297 43.0781 223.385 42.513 223.562 41.9922C223.74 41.4661 223.995 41.0104 224.328 40.625C224.661 40.2344 225.065 39.9323 225.539 39.7188C226.013 39.5 226.544 39.3906 227.133 39.3906C227.727 39.3906 228.26 39.5 228.734 39.7188C229.214 39.9323 229.62 40.2344 229.953 40.625C230.292 41.0104 230.549 41.4661 230.727 41.9922C230.904 42.513 230.992 43.0781 230.992 43.6875V43.8672C230.992 44.4766 230.904 45.0417 230.727 45.5625C230.549 46.0833 230.292 46.5391 229.953 46.9297C229.62 47.3151 229.216 47.6172 228.742 47.8359C228.273 48.0495 227.742 48.1562 227.148 48.1562C226.555 48.1562 226.021 48.0495 225.547 47.8359C225.073 47.6172 224.667 47.3151 224.328 46.9297C223.995 46.5391 223.74 46.0833 223.562 45.5625C223.385 45.0417 223.297 44.4766 223.297 43.8672ZM224.742 43.6875V43.8672C224.742 44.2891 224.792 44.6875 224.891 45.0625C224.99 45.4323 225.138 45.7604 225.336 46.0469C225.539 46.3333 225.792 46.5599 226.094 46.7266C226.396 46.888 226.747 46.9688 227.148 46.9688C227.544 46.9688 227.891 46.888 228.188 46.7266C228.49 46.5599 228.74 46.3333 228.938 46.0469C229.135 45.7604 229.284 45.4323 229.383 45.0625C229.487 44.6875 229.539 44.2891 229.539 43.8672V43.6875C229.539 43.2708 229.487 42.8776 229.383 42.5078C229.284 42.1328 229.133 41.8021 228.93 41.5156C228.732 41.224 228.482 40.9948 228.18 40.8281C227.883 40.6615 227.534 40.5781 227.133 40.5781C226.737 40.5781 226.388 40.6615 226.086 40.8281C225.789 40.9948 225.539 41.224 225.336 41.5156C225.138 41.8021 224.99 42.1328 224.891 42.5078C224.792 42.8776 224.742 43.2708 224.742 43.6875Z" fill="#E5E5E5"/>
<path d="M234.945 46.5L237.117 39.5469H238.07L237.883 40.9297L235.672 48H234.742L234.945 46.5ZM233.484 39.5469L235.336 46.5781L235.469 48H234.492L232.039 39.5469H233.484ZM240.148 46.5234L241.914 39.5469H243.352L240.898 48H239.93L240.148 46.5234ZM238.281 39.5469L240.406 46.3828L240.648 48H239.727L237.453 40.9141L237.266 39.5469H238.281Z" fill="#E5E5E5"/>
<path d="M249.758 45.7578C249.758 45.5495 249.711 45.3568 249.617 45.1797C249.529 44.9974 249.344 44.8333 249.062 44.6875C248.786 44.5365 248.37 44.4062 247.812 44.2969C247.344 44.1979 246.919 44.0807 246.539 43.9453C246.164 43.8099 245.844 43.6458 245.578 43.4531C245.318 43.2604 245.117 43.0339 244.977 42.7734C244.836 42.513 244.766 42.2083 244.766 41.8594C244.766 41.526 244.839 41.2109 244.984 40.9141C245.135 40.6172 245.346 40.3542 245.617 40.125C245.893 39.8958 246.224 39.7161 246.609 39.5859C246.995 39.4557 247.424 39.3906 247.898 39.3906C248.576 39.3906 249.154 39.5104 249.633 39.75C250.112 39.9896 250.479 40.3099 250.734 40.7109C250.99 41.1068 251.117 41.5469 251.117 42.0312H249.672C249.672 41.7969 249.602 41.5703 249.461 41.3516C249.326 41.1276 249.125 40.9427 248.859 40.7969C248.599 40.651 248.279 40.5781 247.898 40.5781C247.497 40.5781 247.172 40.6406 246.922 40.7656C246.677 40.8854 246.497 41.0391 246.383 41.2266C246.273 41.4141 246.219 41.612 246.219 41.8203C246.219 41.9766 246.245 42.1172 246.297 42.2422C246.354 42.362 246.453 42.474 246.594 42.5781C246.734 42.6771 246.932 42.7708 247.188 42.8594C247.443 42.9479 247.768 43.0365 248.164 43.125C248.857 43.2812 249.427 43.4688 249.875 43.6875C250.323 43.9062 250.656 44.1745 250.875 44.4922C251.094 44.8099 251.203 45.1953 251.203 45.6484C251.203 46.0182 251.125 46.3568 250.969 46.6641C250.818 46.9714 250.596 47.237 250.305 47.4609C250.018 47.6797 249.674 47.8516 249.273 47.9766C248.878 48.0964 248.432 48.1562 247.938 48.1562C247.193 48.1562 246.562 48.0234 246.047 47.7578C245.531 47.4922 245.141 47.1484 244.875 46.7266C244.609 46.3047 244.477 45.8594 244.477 45.3906H245.93C245.951 45.7865 246.065 46.1016 246.273 46.3359C246.482 46.5651 246.737 46.7292 247.039 46.8281C247.341 46.9219 247.641 46.9688 247.938 46.9688C248.333 46.9688 248.664 46.9167 248.93 46.8125C249.201 46.7083 249.406 46.5651 249.547 46.3828C249.688 46.2005 249.758 45.9922 249.758 45.7578Z" fill="#E5E5E5"/>
<path d="M91.7734 70.5391H90.4219V69.5781H91.7188C92.2917 69.5781 92.7552 69.4974 93.1094 69.3359C93.4635 69.1745 93.7214 68.9505 93.8828 68.6641C94.0443 68.3776 94.125 68.0469 94.125 67.6719C94.125 67.3125 94.0365 66.9844 93.8594 66.6875C93.6823 66.3854 93.4089 66.1458 93.0391 65.9688C92.6693 65.7865 92.1927 65.6953 91.6094 65.6953C91.1719 65.6953 90.776 65.7786 90.4219 65.9453C90.0677 66.1068 89.7865 66.3333 89.5781 66.625C89.3698 66.9115 89.2656 67.2422 89.2656 67.6172H87.7578C87.7578 67.1328 87.8594 66.6979 88.0625 66.3125C88.2656 65.9219 88.5443 65.5911 88.8984 65.3203C89.2526 65.0443 89.6615 64.8333 90.125 64.6875C90.5938 64.5417 91.0885 64.4688 91.6094 64.4688C92.2188 64.4688 92.7708 64.5391 93.2656 64.6797C93.7604 64.8151 94.1849 65.0182 94.5391 65.2891C94.8932 65.5599 95.1641 65.8958 95.3516 66.2969C95.5391 66.6979 95.6328 67.1641 95.6328 67.6953C95.6328 68.0859 95.5417 68.4531 95.3594 68.7969C95.1771 69.1406 94.9167 69.4427 94.5781 69.7031C94.2396 69.9635 93.8333 70.1693 93.3594 70.3203C92.8854 70.4661 92.3568 70.5391 91.7734 70.5391ZM90.4219 69.875H91.7734C92.4141 69.875 92.9844 69.9401 93.4844 70.0703C93.9844 70.2005 94.4062 70.3906 94.75 70.6406C95.0938 70.8906 95.3542 71.2005 95.5312 71.5703C95.7135 71.9349 95.8047 72.3542 95.8047 72.8281C95.8047 73.3594 95.7005 73.8307 95.4922 74.2422C95.2891 74.6536 95 75.0026 94.625 75.2891C94.25 75.5755 93.8047 75.7917 93.2891 75.9375C92.7786 76.0833 92.2188 76.1562 91.6094 76.1562C91.1198 76.1562 90.6354 76.0938 90.1562 75.9688C89.6823 75.8385 89.2526 75.6406 88.8672 75.375C88.4818 75.1042 88.1719 74.7604 87.9375 74.3438C87.7083 73.9271 87.5938 73.4271 87.5938 72.8438H89.1016C89.1016 73.224 89.2057 73.5729 89.4141 73.8906C89.6276 74.2083 89.9219 74.4635 90.2969 74.6562C90.6719 74.8438 91.1094 74.9375 91.6094 74.9375C92.1823 74.9375 92.6667 74.849 93.0625 74.6719C93.4635 74.4896 93.7682 74.2422 93.9766 73.9297C94.1901 73.612 94.2969 73.2552 94.2969 72.8594C94.2969 72.5104 94.2396 72.2083 94.125 71.9531C94.0156 71.6927 93.8516 71.4792 93.6328 71.3125C93.4193 71.1458 93.151 71.0234 92.8281 70.9453C92.5104 70.862 92.1406 70.8203 91.7188 70.8203H90.4219V69.875Z" fill="#E5E5E5"/>
<path d="M102.555 74.5547V70.2031C102.555 69.8698 102.487 69.5807 102.352 69.3359C102.221 69.0859 102.023 68.8932 101.758 68.7578C101.492 68.6224 101.164 68.5547 100.773 68.5547C100.409 68.5547 100.089 68.6172 99.8125 68.7422C99.5417 68.8672 99.3281 69.0312 99.1719 69.2344C99.0208 69.4375 98.9453 69.6562 98.9453 69.8906H97.5C97.5 69.5885 97.5781 69.2891 97.7344 68.9922C97.8906 68.6953 98.1146 68.4271 98.4062 68.1875C98.7031 67.9427 99.0573 67.75 99.4688 67.6094C99.8854 67.4635 100.349 67.3906 100.859 67.3906C101.474 67.3906 102.016 67.4948 102.484 67.7031C102.958 67.9115 103.328 68.2266 103.594 68.6484C103.865 69.0651 104 69.5885 104 70.2188V74.1562C104 74.4375 104.023 74.737 104.07 75.0547C104.122 75.3724 104.198 75.6458 104.297 75.875V76H102.789C102.716 75.8333 102.659 75.612 102.617 75.3359C102.576 75.0547 102.555 74.7943 102.555 74.5547ZM102.805 70.875L102.82 71.8906H101.359C100.948 71.8906 100.581 71.9245 100.258 71.9922C99.9349 72.0547 99.6641 72.151 99.4453 72.2812C99.2266 72.4115 99.0599 72.5755 98.9453 72.7734C98.8307 72.9661 98.7734 73.1927 98.7734 73.4531C98.7734 73.7188 98.8333 73.9609 98.9531 74.1797C99.0729 74.3984 99.2526 74.5729 99.4922 74.7031C99.737 74.8281 100.036 74.8906 100.391 74.8906C100.833 74.8906 101.224 74.7969 101.562 74.6094C101.901 74.4219 102.169 74.1927 102.367 73.9219C102.57 73.651 102.68 73.388 102.695 73.1328L103.312 73.8281C103.276 74.0469 103.177 74.2891 103.016 74.5547C102.854 74.8203 102.638 75.0755 102.367 75.3203C102.102 75.5599 101.784 75.7604 101.414 75.9219C101.049 76.0781 100.638 76.1562 100.18 76.1562C99.6068 76.1562 99.1042 76.0443 98.6719 75.8203C98.2448 75.5964 97.9115 75.2969 97.6719 74.9219C97.4375 74.5417 97.3203 74.1172 97.3203 73.6484C97.3203 73.1953 97.4089 72.7969 97.5859 72.4531C97.763 72.1042 98.0182 71.8151 98.3516 71.5859C98.6849 71.3516 99.0859 71.1745 99.5547 71.0547C100.023 70.9349 100.547 70.875 101.125 70.875H102.805Z" fill="#E5E5E5"/>
<path d="M110.242 72.2812H107.469L107.453 71.125H109.719C110.167 71.125 110.539 71.0807 110.836 70.9922C111.138 70.9036 111.365 70.7708 111.516 70.5938C111.667 70.4167 111.742 70.1979 111.742 69.9375C111.742 69.7344 111.698 69.5573 111.609 69.4062C111.526 69.25 111.398 69.1224 111.227 69.0234C111.055 68.9193 110.841 68.8438 110.586 68.7969C110.336 68.7448 110.042 68.7188 109.703 68.7188H107.852V76H106.406V67.5469H109.703C110.24 67.5469 110.721 67.5938 111.148 67.6875C111.581 67.7812 111.948 67.9245 112.25 68.1172C112.557 68.3047 112.792 68.5443 112.953 68.8359C113.115 69.1276 113.195 69.4714 113.195 69.8672C113.195 70.1224 113.143 70.3646 113.039 70.5938C112.935 70.8229 112.781 71.026 112.578 71.2031C112.375 71.3802 112.125 71.526 111.828 71.6406C111.531 71.75 111.19 71.8203 110.805 71.8516L110.242 72.2812ZM110.242 76H106.945L107.664 74.8281H110.242C110.643 74.8281 110.977 74.7786 111.242 74.6797C111.508 74.5755 111.706 74.4297 111.836 74.2422C111.971 74.0495 112.039 73.8203 112.039 73.5547C112.039 73.2891 111.971 73.0625 111.836 72.875C111.706 72.6823 111.508 72.5365 111.242 72.4375C110.977 72.3333 110.643 72.2812 110.242 72.2812H108.047L108.062 71.125H110.805L111.328 71.5625C111.792 71.599 112.185 71.7135 112.508 71.9062C112.831 72.099 113.076 72.3438 113.242 72.6406C113.409 72.9323 113.492 73.25 113.492 73.5938C113.492 73.9896 113.417 74.3385 113.266 74.6406C113.12 74.9427 112.906 75.1953 112.625 75.3984C112.344 75.5964 112.003 75.7474 111.602 75.8516C111.201 75.9505 110.747 76 110.242 76Z" fill="#E5E5E5"/>
<path d="M120.414 74.5547V70.2031C120.414 69.8698 120.346 69.5807 120.211 69.3359C120.081 69.0859 119.883 68.8932 119.617 68.7578C119.352 68.6224 119.023 68.5547 118.633 68.5547C118.268 68.5547 117.948 68.6172 117.672 68.7422C117.401 68.8672 117.188 69.0312 117.031 69.2344C116.88 69.4375 116.805 69.6562 116.805 69.8906H115.359C115.359 69.5885 115.438 69.2891 115.594 68.9922C115.75 68.6953 115.974 68.4271 116.266 68.1875C116.562 67.9427 116.917 67.75 117.328 67.6094C117.745 67.4635 118.208 67.3906 118.719 67.3906C119.333 67.3906 119.875 67.4948 120.344 67.7031C120.818 67.9115 121.188 68.2266 121.453 68.6484C121.724 69.0651 121.859 69.5885 121.859 70.2188V74.1562C121.859 74.4375 121.883 74.737 121.93 75.0547C121.982 75.3724 122.057 75.6458 122.156 75.875V76H120.648C120.576 75.8333 120.518 75.612 120.477 75.3359C120.435 75.0547 120.414 74.7943 120.414 74.5547ZM120.664 70.875L120.68 71.8906H119.219C118.807 71.8906 118.44 71.9245 118.117 71.9922C117.794 72.0547 117.523 72.151 117.305 72.2812C117.086 72.4115 116.919 72.5755 116.805 72.7734C116.69 72.9661 116.633 73.1927 116.633 73.4531C116.633 73.7188 116.693 73.9609 116.812 74.1797C116.932 74.3984 117.112 74.5729 117.352 74.7031C117.596 74.8281 117.896 74.8906 118.25 74.8906C118.693 74.8906 119.083 74.7969 119.422 74.6094C119.76 74.4219 120.029 74.1927 120.227 73.9219C120.43 73.651 120.539 73.388 120.555 73.1328L121.172 73.8281C121.135 74.0469 121.036 74.2891 120.875 74.5547C120.714 74.8203 120.497 75.0755 120.227 75.3203C119.961 75.5599 119.643 75.7604 119.273 75.9219C118.909 76.0781 118.497 76.1562 118.039 76.1562C117.466 76.1562 116.964 76.0443 116.531 75.8203C116.104 75.5964 115.771 75.2969 115.531 74.9219C115.297 74.5417 115.18 74.1172 115.18 73.6484C115.18 73.1953 115.268 72.7969 115.445 72.4531C115.622 72.1042 115.878 71.8151 116.211 71.5859C116.544 71.3516 116.945 71.1745 117.414 71.0547C117.883 70.9349 118.406 70.875 118.984 70.875H120.664Z" fill="#E5E5E5"/>
<path d="M129.867 71.2109V72.3828H125.398V71.2109H129.867ZM125.703 67.5469V76H124.258V67.5469H125.703ZM131.039 67.5469V76H129.586V67.5469H131.039Z" fill="#E5E5E5"/>
<path d="M136.812 67.5469V76H135.359V67.5469H136.812ZM139.648 67.5469V68.7188H132.578V67.5469H139.648Z" fill="#E5E5E5"/>
<path d="M145.93 74.5547V70.2031C145.93 69.8698 145.862 69.5807 145.727 69.3359C145.596 69.0859 145.398 68.8932 145.133 68.7578C144.867 68.6224 144.539 68.5547 144.148 68.5547C143.784 68.5547 143.464 68.6172 143.188 68.7422C142.917 68.8672 142.703 69.0312 142.547 69.2344C142.396 69.4375 142.32 69.6562 142.32 69.8906H140.875C140.875 69.5885 140.953 69.2891 141.109 68.9922C141.266 68.6953 141.49 68.4271 141.781 68.1875C142.078 67.9427 142.432 67.75 142.844 67.6094C143.26 67.4635 143.724 67.3906 144.234 67.3906C144.849 67.3906 145.391 67.4948 145.859 67.7031C146.333 67.9115 146.703 68.2266 146.969 68.6484C147.24 69.0651 147.375 69.5885 147.375 70.2188V74.1562C147.375 74.4375 147.398 74.737 147.445 75.0547C147.497 75.3724 147.573 75.6458 147.672 75.875V76H146.164C146.091 75.8333 146.034 75.612 145.992 75.3359C145.951 75.0547 145.93 74.7943 145.93 74.5547ZM146.18 70.875L146.195 71.8906H144.734C144.323 71.8906 143.956 71.9245 143.633 71.9922C143.31 72.0547 143.039 72.151 142.82 72.2812C142.602 72.4115 142.435 72.5755 142.32 72.7734C142.206 72.9661 142.148 73.1927 142.148 73.4531C142.148 73.7188 142.208 73.9609 142.328 74.1797C142.448 74.3984 142.628 74.5729 142.867 74.7031C143.112 74.8281 143.411 74.8906 143.766 74.8906C144.208 74.8906 144.599 74.7969 144.938 74.6094C145.276 74.4219 145.544 74.1927 145.742 73.9219C145.945 73.651 146.055 73.388 146.07 73.1328L146.688 73.8281C146.651 74.0469 146.552 74.2891 146.391 74.5547C146.229 74.8203 146.013 75.0755 145.742 75.3203C145.477 75.5599 145.159 75.7604 144.789 75.9219C144.424 76.0781 144.013 76.1562 143.555 76.1562C142.982 76.1562 142.479 76.0443 142.047 75.8203C141.62 75.5964 141.286 75.2969 141.047 74.9219C140.812 74.5417 140.695 74.1172 140.695 73.6484C140.695 73.1953 140.784 72.7969 140.961 72.4531C141.138 72.1042 141.393 71.8151 141.727 71.5859C142.06 71.3516 142.461 71.1745 142.93 71.0547C143.398 70.9349 143.922 70.875 144.5 70.875H146.18Z" fill="#E5E5E5"/>
<path d="M152.211 72.3203L149.008 67.5469H150.75L152.938 71.0469H154.625L154.414 72.3203H152.211ZM153 72.1719L150.547 76H148.719L152.086 71.125L153 72.1719ZM155.367 67.5469V76H153.922V67.5469H155.367ZM160.297 67.5469L157.094 72.3203H154.891L154.664 71.0469H156.359L158.547 67.5469H160.297ZM158.75 76L156.289 72.1719L157.219 71.125L160.578 76H158.75Z" fill="#E5E5E5"/>
<path d="M163.477 73.7109L167.375 67.5469H168.828V76H167.375V69.8359L163.477 76H162.039V67.5469H163.477V73.7109Z" fill="#E5E5E5"/>
<path d="M174.594 67.5469V76H173.141V67.5469H174.594ZM177.43 67.5469V68.7188H170.359V67.5469H177.43Z" fill="#E5E5E5"/>
<path d="M180.414 73.7109L184.312 67.5469H185.766V76H184.312V69.8359L180.414 76H178.977V67.5469H180.414V73.7109Z" fill="#E5E5E5"/>
<path d="M193.578 67.5469H195.023L194.898 70.7109C194.867 71.513 194.776 72.2057 194.625 72.7891C194.474 73.3724 194.281 73.8698 194.047 74.2812C193.812 74.6875 193.549 75.0286 193.258 75.3047C192.971 75.5807 192.674 75.8125 192.367 76H191.648L191.688 74.8203L191.984 74.8125C192.156 74.6094 192.323 74.401 192.484 74.1875C192.646 73.9688 192.794 73.7109 192.93 73.4141C193.065 73.112 193.177 72.7448 193.266 72.3125C193.359 71.875 193.419 71.3411 193.445 70.7109L193.578 67.5469ZM193.938 67.5469H199.023V76H197.578V68.8828H193.938V67.5469ZM191.32 74.8125H200.109V78.4922H198.664V76H192.766V78.4922H191.312L191.32 74.8125Z" fill="#E5E5E5"/>
<path d="M207.359 67.5469V68.7422H203.273V67.5469H207.359ZM208.633 67.5469V76H207.188V67.5469H208.633ZM202.922 67.5469H204.375L204.156 71.625C204.12 72.2552 204.06 72.8125 203.977 73.2969C203.898 73.776 203.789 74.1875 203.648 74.5312C203.513 74.875 203.341 75.1562 203.133 75.375C202.93 75.5885 202.685 75.7474 202.398 75.8516C202.112 75.9505 201.781 76 201.406 76H200.953V74.7266L201.266 74.7031C201.49 74.6875 201.68 74.6354 201.836 74.5469C201.997 74.4583 202.133 74.3281 202.242 74.1562C202.352 73.9792 202.44 73.7526 202.508 73.4766C202.581 73.2005 202.635 72.8724 202.672 72.4922C202.714 72.112 202.745 71.6693 202.766 71.1641L202.922 67.5469Z" fill="#E5E5E5"/>
<path d="M212.672 71.9688H214.234L211.789 76H210.227L212.672 71.9688ZM213.883 67.5469H217.414V76H215.969V68.7188H213.883C213.471 68.7188 213.135 68.7891 212.875 68.9297C212.615 69.0651 212.424 69.2422 212.305 69.4609C212.185 69.6797 212.125 69.9062 212.125 70.1406C212.125 70.3698 212.18 70.5911 212.289 70.8047C212.398 71.013 212.57 71.1849 212.805 71.3203C213.039 71.4557 213.341 71.5234 213.711 71.5234H216.359V72.7109H213.711C213.227 72.7109 212.797 72.6458 212.422 72.5156C212.047 72.3854 211.729 72.2057 211.469 71.9766C211.208 71.7422 211.01 71.4688 210.875 71.1562C210.74 70.8385 210.672 70.4948 210.672 70.125C210.672 69.7552 210.742 69.4141 210.883 69.1016C211.029 68.7891 211.237 68.5156 211.508 68.2812C211.784 68.0469 212.12 67.8672 212.516 67.7422C212.917 67.612 213.372 67.5469 213.883 67.5469Z" fill="#E5E5E5"/>
<path d="M226.922 72.5625L229.18 64.625H230.273L229.641 67.7109L227.211 76H226.125L226.922 72.5625ZM224.586 64.625L226.383 72.4062L226.922 76H225.844L223.086 64.625H224.586ZM233.195 72.3984L234.953 64.625H236.461L233.711 76H232.633L233.195 72.3984ZM230.438 64.625L232.633 72.5625L233.43 76H232.344L230 67.7109L229.359 64.625H230.438Z" fill="#E5E5E5"/>
<path d="M239.484 67.5469V76H238.031V67.5469H239.484ZM237.922 65.3047C237.922 65.0703 237.992 64.8724 238.133 64.7109C238.279 64.5495 238.492 64.4688 238.773 64.4688C239.049 64.4688 239.26 64.5495 239.406 64.7109C239.557 64.8724 239.633 65.0703 239.633 65.3047C239.633 65.5286 239.557 65.7214 239.406 65.8828C239.26 66.0391 239.049 66.1172 238.773 66.1172C238.492 66.1172 238.279 66.0391 238.133 65.8828C237.992 65.7214 237.922 65.5286 237.922 65.3047Z" fill="#E5E5E5"/>
<path d="M243.25 69.3516V76H241.805V67.5469H243.172L243.25 69.3516ZM242.906 71.4531L242.305 71.4297C242.31 70.8516 242.396 70.3177 242.562 69.8281C242.729 69.3333 242.964 68.9036 243.266 68.5391C243.568 68.1745 243.927 67.8932 244.344 67.6953C244.766 67.4922 245.232 67.3906 245.742 67.3906C246.159 67.3906 246.534 67.4479 246.867 67.5625C247.201 67.6719 247.484 67.849 247.719 68.0938C247.958 68.3385 248.141 68.6562 248.266 69.0469C248.391 69.4323 248.453 69.9036 248.453 70.4609V76H247V70.4453C247 70.0026 246.935 69.6484 246.805 69.3828C246.674 69.112 246.484 68.9167 246.234 68.7969C245.984 68.6719 245.677 68.6094 245.312 68.6094C244.953 68.6094 244.625 68.6849 244.328 68.8359C244.036 68.987 243.784 69.1953 243.57 69.4609C243.362 69.7266 243.198 70.0312 243.078 70.375C242.964 70.7135 242.906 71.0729 242.906 71.4531Z" fill="#E5E5E5"/>
<path d="M255.977 74.3594V64H257.43V76H256.102L255.977 74.3594ZM250.289 71.8672V71.7031C250.289 71.0573 250.367 70.4714 250.523 69.9453C250.685 69.4141 250.911 68.9583 251.203 68.5781C251.5 68.1979 251.852 67.9062 252.258 67.7031C252.669 67.4948 253.128 67.3906 253.633 67.3906C254.164 67.3906 254.628 67.4844 255.023 67.6719C255.424 67.8542 255.763 68.1224 256.039 68.4766C256.32 68.8255 256.542 69.2474 256.703 69.7422C256.865 70.237 256.977 70.7969 257.039 71.4219V72.1406C256.982 72.7604 256.87 73.3177 256.703 73.8125C256.542 74.3073 256.32 74.7292 256.039 75.0781C255.763 75.4271 255.424 75.6953 255.023 75.8828C254.622 76.0651 254.154 76.1562 253.617 76.1562C253.122 76.1562 252.669 76.0495 252.258 75.8359C251.852 75.6224 251.5 75.3229 251.203 74.9375C250.911 74.5521 250.685 74.099 250.523 73.5781C250.367 73.0521 250.289 72.4818 250.289 71.8672ZM251.742 71.7031V71.8672C251.742 72.2891 251.784 72.6849 251.867 73.0547C251.956 73.4245 252.091 73.75 252.273 74.0312C252.456 74.3125 252.688 74.5339 252.969 74.6953C253.25 74.8516 253.586 74.9297 253.977 74.9297C254.456 74.9297 254.849 74.8281 255.156 74.625C255.469 74.4219 255.719 74.1536 255.906 73.8203C256.094 73.487 256.24 73.125 256.344 72.7344V70.8516C256.281 70.5651 256.19 70.2891 256.07 70.0234C255.956 69.7526 255.805 69.513 255.617 69.3047C255.435 69.0911 255.208 68.9219 254.938 68.7969C254.672 68.6719 254.357 68.6094 253.992 68.6094C253.596 68.6094 253.255 68.6927 252.969 68.8594C252.688 69.0208 252.456 69.2448 252.273 69.5312C252.091 69.8125 251.956 70.1406 251.867 70.5156C251.784 70.8854 251.742 71.2812 251.742 71.7031Z" fill="#E5E5E5"/>
<path d="M259.297 71.8672V71.6875C259.297 71.0781 259.385 70.513 259.562 69.9922C259.74 69.4661 259.995 69.0104 260.328 68.625C260.661 68.2344 261.065 67.9323 261.539 67.7188C262.013 67.5 262.544 67.3906 263.133 67.3906C263.727 67.3906 264.26 67.5 264.734 67.7188C265.214 67.9323 265.62 68.2344 265.953 68.625C266.292 69.0104 266.549 69.4661 266.727 69.9922C266.904 70.513 266.992 71.0781 266.992 71.6875V71.8672C266.992 72.4766 266.904 73.0417 266.727 73.5625C266.549 74.0833 266.292 74.5391 265.953 74.9297C265.62 75.3151 265.216 75.6172 264.742 75.8359C264.273 76.0495 263.742 76.1562 263.148 76.1562C262.555 76.1562 262.021 76.0495 261.547 75.8359C261.073 75.6172 260.667 75.3151 260.328 74.9297C259.995 74.5391 259.74 74.0833 259.562 73.5625C259.385 73.0417 259.297 72.4766 259.297 71.8672ZM260.742 71.6875V71.8672C260.742 72.2891 260.792 72.6875 260.891 73.0625C260.99 73.4323 261.138 73.7604 261.336 74.0469C261.539 74.3333 261.792 74.5599 262.094 74.7266C262.396 74.888 262.747 74.9688 263.148 74.9688C263.544 74.9688 263.891 74.888 264.188 74.7266C264.49 74.5599 264.74 74.3333 264.938 74.0469C265.135 73.7604 265.284 73.4323 265.383 73.0625C265.487 72.6875 265.539 72.2891 265.539 71.8672V71.6875C265.539 71.2708 265.487 70.8776 265.383 70.5078C265.284 70.1328 265.133 69.8021 264.93 69.5156C264.732 69.224 264.482 68.9948 264.18 68.8281C263.883 68.6615 263.534 68.5781 263.133 68.5781C262.737 68.5781 262.388 68.6615 262.086 68.8281C261.789 68.9948 261.539 69.224 261.336 69.5156C261.138 69.8021 260.99 70.1328 260.891 70.5078C260.792 70.8776 260.742 71.2708 260.742 71.6875Z" fill="#E5E5E5"/>
<path d="M270.945 74.5L273.117 67.5469H274.07L273.883 68.9297L271.672 76H270.742L270.945 74.5ZM269.484 67.5469L271.336 74.5781L271.469 76H270.492L268.039 67.5469H269.484ZM276.148 74.5234L277.914 67.5469H279.352L276.898 76H275.93L276.148 74.5234ZM274.281 67.5469L276.406 74.3828L276.648 76H275.727L273.453 68.9141L273.266 67.5469H274.281Z" fill="#E5E5E5"/>
<path d="M285.758 73.7578C285.758 73.5495 285.711 73.3568 285.617 73.1797C285.529 72.9974 285.344 72.8333 285.062 72.6875C284.786 72.5365 284.37 72.4062 283.812 72.2969C283.344 72.1979 282.919 72.0807 282.539 71.9453C282.164 71.8099 281.844 71.6458 281.578 71.4531C281.318 71.2604 281.117 71.0339 280.977 70.7734C280.836 70.513 280.766 70.2083 280.766 69.8594C280.766 69.526 280.839 69.2109 280.984 68.9141C281.135 68.6172 281.346 68.3542 281.617 68.125C281.893 67.8958 282.224 67.7161 282.609 67.5859C282.995 67.4557 283.424 67.3906 283.898 67.3906C284.576 67.3906 285.154 67.5104 285.633 67.75C286.112 67.9896 286.479 68.3099 286.734 68.7109C286.99 69.1068 287.117 69.5469 287.117 70.0312H285.672C285.672 69.7969 285.602 69.5703 285.461 69.3516C285.326 69.1276 285.125 68.9427 284.859 68.7969C284.599 68.651 284.279 68.5781 283.898 68.5781C283.497 68.5781 283.172 68.6406 282.922 68.7656C282.677 68.8854 282.497 69.0391 282.383 69.2266C282.273 69.4141 282.219 69.612 282.219 69.8203C282.219 69.9766 282.245 70.1172 282.297 70.2422C282.354 70.362 282.453 70.474 282.594 70.5781C282.734 70.6771 282.932 70.7708 283.188 70.8594C283.443 70.9479 283.768 71.0365 284.164 71.125C284.857 71.2812 285.427 71.4688 285.875 71.6875C286.323 71.9062 286.656 72.1745 286.875 72.4922C287.094 72.8099 287.203 73.1953 287.203 73.6484C287.203 74.0182 287.125 74.3568 286.969 74.6641C286.818 74.9714 286.596 75.237 286.305 75.4609C286.018 75.6797 285.674 75.8516 285.273 75.9766C284.878 76.0964 284.432 76.1562 283.938 76.1562C283.193 76.1562 282.562 76.0234 282.047 75.7578C281.531 75.4922 281.141 75.1484 280.875 74.7266C280.609 74.3047 280.477 73.8594 280.477 73.3906H281.93C281.951 73.7865 282.065 74.1016 282.273 74.3359C282.482 74.5651 282.737 74.7292 283.039 74.8281C283.341 74.9219 283.641 74.9688 283.938 74.9688C284.333 74.9688 284.664 74.9167 284.93 74.8125C285.201 74.7083 285.406 74.5651 285.547 74.3828C285.688 74.2005 285.758 73.9922 285.758 73.7578Z" fill="#E5E5E5"/>
<path d="M37.1989 46.0678L48.4465 44.5992L48.4515 55.0009L37.2091 55.0623L37.1989 46.0678ZM48.4412 56.1994L48.4499 66.6101L37.2076 65.1282L37.207 56.1295L48.4412 56.1994ZM49.8047 44.4071L64.7181 42.3203V54.8686L49.8047 54.9821V44.4071ZM64.7216 56.2973L64.7181 68.7891L49.8046 66.771L49.7837 56.2739L64.7216 56.2973Z" fill="#EDEDED"/>
<defs>
<filter id="filter0_d_41_12" x="8" y="10" width="323" height="98" filterUnits="userSpaceOnUse" color-interpolation-filters="sRGB">
<feFlood flood-opacity="0" result="BackgroundImageFix"/>
<feColorMatrix in="SourceAlpha" type="matrix" values="0 0 0 0 0 0 0 0 0 0 0 0 0 0 0 0 0 0 127 0" result="hardAlpha"/>
<feOffset dx="2" dy="2"/>
<feGaussianBlur stdDeviation="2"/>
<feComposite in2="hardAlpha" operator="out"/>
<feColorMatrix type="matrix" values="0 0 0 0 0 0 0 0 0 0 0 0 0 0 0 0 0 0 0.25 0"/>
<feBlend mode="normal" in2="BackgroundImageFix" result="effect1_dropShadow_41_12"/>
<feBlend mode="normal" in="SourceGraphic" in2="effect1_dropShadow_41_12" result="shape"/>
</filter>
<linearGradient id="paint0_linear_41_12" x1="167.5" y1="12" x2="167.5" y2="102" gradientUnits="userSpaceOnUse">
<stop stop-color="#B20101"/>
<stop offset="1"/>
</linearGradient>
</defs>
</svg>
