<svg width="314" height="115" viewBox="0 0 314 115" fill="none" xmlns="http://www.w3.org/2000/svg">
<g filter="url(#filter0_d_126_8)">
<path d="M10 22C10 16.4772 14.136 12 19.2381 12H291.762C296.864 12 301 16.4772 301 22V92C301 97.5228 296.864 102 291.762 102H19.2381C14.136 102 10 97.5228 10 92V22Z" fill="url(#paint0_linear_126_8)"/>
</g>
<path d="M90.5859 48H88.2109L88.2266 46.7734H90.5859C91.3984 46.7734 92.0755 46.6042 92.6172 46.2656C93.1589 45.9219 93.5651 45.4427 93.8359 44.8281C94.112 44.2083 94.25 43.4844 94.25 42.6562V41.9609C94.25 41.3099 94.1719 40.7318 94.0156 40.2266C93.8594 39.7161 93.6302 39.2865 93.3281 38.9375C93.026 38.5833 92.6562 38.3151 92.2188 38.1328C91.7865 37.9505 91.2891 37.8594 90.7266 37.8594H88.1641V36.625H90.7266C91.4714 36.625 92.151 36.75 92.7656 37C93.3802 37.2448 93.9089 37.6016 94.3516 38.0703C94.7995 38.5339 95.1432 39.0964 95.3828 39.7578C95.6224 40.4141 95.7422 41.1536 95.7422 41.9766V42.6562C95.7422 43.4792 95.6224 44.2214 95.3828 44.8828C95.1432 45.5391 94.7969 46.099 94.3438 46.5625C93.8958 47.026 93.3542 47.3828 92.7188 47.6328C92.0885 47.8776 91.3776 48 90.5859 48ZM89.0156 36.625V48H87.5078V36.625H89.0156ZM97.4062 43.8672V43.6875C97.4062 43.0781 97.4948 42.513 97.6719 41.9922C97.849 41.4661 98.1042 41.0104 98.4375 40.625C98.7708 40.2344 99.1745 39.9323 99.6484 39.7188C100.122 39.5 100.654 39.3906 101.242 39.3906C101.836 39.3906 102.37 39.5 102.844 39.7188C103.323 39.9323 103.729 40.2344 104.062 40.625C104.401 41.0104 104.659 41.4661 104.836 41.9922C105.013 42.513 105.102 43.0781 105.102 43.6875V43.8672C105.102 44.4766 105.013 45.0417 104.836 45.5625C104.659 46.0833 104.401 46.5391 104.062 46.9297C103.729 47.3151 103.326 47.6172 102.852 47.8359C102.383 48.0495 101.852 48.1562 101.258 48.1562C100.664 48.1562 100.13 48.0495 99.6562 47.8359C99.1823 47.6172 98.776 47.3151 98.4375 46.9297C98.1042 46.5391 97.849 46.0833 97.6719 45.5625C97.4948 45.0417 97.4062 44.4766 97.4062 43.8672ZM98.8516 43.6875V43.8672C98.8516 44.2891 98.901 44.6875 99 45.0625C99.099 45.4323 99.2474 45.7604 99.4453 46.0469C99.6484 46.3333 99.901 46.5599 100.203 46.7266C100.505 46.888 100.857 46.9688 101.258 46.9688C101.654 46.9688 102 46.888 102.297 46.7266C102.599 46.5599 102.849 46.3333 103.047 46.0469C103.245 45.7604 103.393 45.4323 103.492 45.0625C103.596 44.6875 103.648 44.2891 103.648 43.8672V43.6875C103.648 43.2708 103.596 42.8776 103.492 42.5078C103.393 42.1328 103.242 41.8021 103.039 41.5156C102.841 41.224 102.591 40.9948 102.289 40.8281C101.992 40.6615 101.643 40.5781 101.242 40.5781C100.846 40.5781 100.497 40.6615 100.195 40.8281C99.8984 40.9948 99.6484 41.224 99.4453 41.5156C99.2474 41.8021 99.099 42.1328 99 42.5078C98.901 42.8776 98.8516 43.2708 98.8516 43.6875ZM109.055 46.5L111.227 39.5469H112.18L111.992 40.9297L109.781 48H108.852L109.055 46.5ZM107.594 39.5469L109.445 46.5781L109.578 48H108.602L106.148 39.5469H107.594ZM114.258 46.5234L116.023 39.5469H117.461L115.008 48H114.039L114.258 46.5234ZM112.391 39.5469L114.516 46.3828L114.758 48H113.836L111.562 40.9141L111.375 39.5469H112.391ZM120.391 41.3516V48H118.945V39.5469H120.312L120.391 41.3516ZM120.047 43.4531L119.445 43.4297C119.451 42.8516 119.536 42.3177 119.703 41.8281C119.87 41.3333 120.104 40.9036 120.406 40.5391C120.708 40.1745 121.068 39.8932 121.484 39.6953C121.906 39.4922 122.372 39.3906 122.883 39.3906C123.299 39.3906 123.674 39.4479 124.008 39.5625C124.341 39.6719 124.625 39.849 124.859 40.0938C125.099 40.3385 125.281 40.6562 125.406 41.0469C125.531 41.4323 125.594 41.9036 125.594 42.4609V48H124.141V42.4453C124.141 42.0026 124.076 41.6484 123.945 41.3828C123.815 41.112 123.625 40.9167 123.375 40.7969C123.125 40.6719 122.818 40.6094 122.453 40.6094C122.094 40.6094 121.766 40.6849 121.469 40.8359C121.177 40.987 120.924 41.1953 120.711 41.4609C120.503 41.7266 120.339 42.0312 120.219 42.375C120.104 42.7135 120.047 43.0729 120.047 43.4531ZM129.359 36V48H127.906V36H129.359ZM131.297 43.8672V43.6875C131.297 43.0781 131.385 42.513 131.562 41.9922C131.74 41.4661 131.995 41.0104 132.328 40.625C132.661 40.2344 133.065 39.9323 133.539 39.7188C134.013 39.5 134.544 39.3906 135.133 39.3906C135.727 39.3906 136.26 39.5 136.734 39.7188C137.214 39.9323 137.62 40.2344 137.953 40.625C138.292 41.0104 138.549 41.4661 138.727 41.9922C138.904 42.513 138.992 43.0781 138.992 43.6875V43.8672C138.992 44.4766 138.904 45.0417 138.727 45.5625C138.549 46.0833 138.292 46.5391 137.953 46.9297C137.62 47.3151 137.216 47.6172 136.742 47.8359C136.273 48.0495 135.742 48.1562 135.148 48.1562C134.555 48.1562 134.021 48.0495 133.547 47.8359C133.073 47.6172 132.667 47.3151 132.328 46.9297C131.995 46.5391 131.74 46.0833 131.562 45.5625C131.385 45.0417 131.297 44.4766 131.297 43.8672ZM132.742 43.6875V43.8672C132.742 44.2891 132.792 44.6875 132.891 45.0625C132.99 45.4323 133.138 45.7604 133.336 46.0469C133.539 46.3333 133.792 46.5599 134.094 46.7266C134.396 46.888 134.747 46.9688 135.148 46.9688C135.544 46.9688 135.891 46.888 136.188 46.7266C136.49 46.5599 136.74 46.3333 136.938 46.0469C137.135 45.7604 137.284 45.4323 137.383 45.0625C137.487 44.6875 137.539 44.2891 137.539 43.8672V43.6875C137.539 43.2708 137.487 42.8776 137.383 42.5078C137.284 42.1328 137.133 41.8021 136.93 41.5156C136.732 41.224 136.482 40.9948 136.18 40.8281C135.883 40.6615 135.534 40.5781 135.133 40.5781C134.737 40.5781 134.388 40.6615 134.086 40.8281C133.789 40.9948 133.539 41.224 133.336 41.5156C133.138 41.8021 132.99 42.1328 132.891 42.5078C132.792 42.8776 132.742 43.2708 132.742 43.6875ZM145.789 46.5547V42.2031C145.789 41.8698 145.721 41.5807 145.586 41.3359C145.456 41.0859 145.258 40.8932 144.992 40.7578C144.727 40.6224 144.398 40.5547 144.008 40.5547C143.643 40.5547 143.323 40.6172 143.047 40.7422C142.776 40.8672 142.562 41.0312 142.406 41.2344C142.255 41.4375 142.18 41.6562 142.18 41.8906H140.734C140.734 41.5885 140.812 41.2891 140.969 40.9922C141.125 40.6953 141.349 40.4271 141.641 40.1875C141.938 39.9427 142.292 39.75 142.703 39.6094C143.12 39.4635 143.583 39.3906 144.094 39.3906C144.708 39.3906 145.25 39.4948 145.719 39.7031C146.193 39.9115 146.562 40.2266 146.828 40.6484C147.099 41.0651 147.234 41.5885 147.234 42.2188V46.1562C147.234 46.4375 147.258 46.737 147.305 47.0547C147.357 47.3724 147.432 47.6458 147.531 47.875V48H146.023C145.951 47.8333 145.893 47.612 145.852 47.3359C145.81 47.0547 145.789 46.7943 145.789 46.5547ZM146.039 42.875L146.055 43.8906H144.594C144.182 43.8906 143.815 43.9245 143.492 43.9922C143.169 44.0547 142.898 44.151 142.68 44.2812C142.461 44.4115 142.294 44.5755 142.18 44.7734C142.065 44.9661 142.008 45.1927 142.008 45.4531C142.008 45.7188 142.068 45.9609 142.188 46.1797C142.307 46.3984 142.487 46.5729 142.727 46.7031C142.971 46.8281 143.271 46.8906 143.625 46.8906C144.068 46.8906 144.458 46.7969 144.797 46.6094C145.135 46.4219 145.404 46.1927 145.602 45.9219C145.805 45.651 145.914 45.388 145.93 45.1328L146.547 45.8281C146.51 46.0469 146.411 46.2891 146.25 46.5547C146.089 46.8203 145.872 47.0755 145.602 47.3203C145.336 47.5599 145.018 47.7604 144.648 47.9219C144.284 48.0781 143.872 48.1562 143.414 48.1562C142.841 48.1562 142.339 48.0443 141.906 47.8203C141.479 47.5964 141.146 47.2969 140.906 46.9219C140.672 46.5417 140.555 46.1172 140.555 45.6484C140.555 45.1953 140.643 44.7969 140.82 44.4531C140.997 44.1042 141.253 43.8151 141.586 43.5859C141.919 43.3516 142.32 43.1745 142.789 43.0547C143.258 42.9349 143.781 42.875 144.359 42.875H146.039ZM154.836 46.3594V36H156.289V48H154.961L154.836 46.3594ZM149.148 43.8672V43.7031C149.148 43.0573 149.227 42.4714 149.383 41.9453C149.544 41.4141 149.771 40.9583 150.062 40.5781C150.359 40.1979 150.711 39.9062 151.117 39.7031C151.529 39.4948 151.987 39.3906 152.492 39.3906C153.023 39.3906 153.487 39.4844 153.883 39.6719C154.284 39.8542 154.622 40.1224 154.898 40.4766C155.18 40.8255 155.401 41.2474 155.562 41.7422C155.724 42.237 155.836 42.7969 155.898 43.4219V44.1406C155.841 44.7604 155.729 45.3177 155.562 45.8125C155.401 46.3073 155.18 46.7292 154.898 47.0781C154.622 47.4271 154.284 47.6953 153.883 47.8828C153.482 48.0651 153.013 48.1562 152.477 48.1562C151.982 48.1562 151.529 48.0495 151.117 47.8359C150.711 47.6224 150.359 47.3229 150.062 46.9375C149.771 46.5521 149.544 46.099 149.383 45.5781C149.227 45.0521 149.148 44.4818 149.148 43.8672ZM150.602 43.7031V43.8672C150.602 44.2891 150.643 44.6849 150.727 45.0547C150.815 45.4245 150.951 45.75 151.133 46.0312C151.315 46.3125 151.547 46.5339 151.828 46.6953C152.109 46.8516 152.445 46.9297 152.836 46.9297C153.315 46.9297 153.708 46.8281 154.016 46.625C154.328 46.4219 154.578 46.1536 154.766 45.8203C154.953 45.487 155.099 45.125 155.203 44.7344V42.8516C155.141 42.5651 155.049 42.2891 154.93 42.0234C154.815 41.7526 154.664 41.513 154.477 41.3047C154.294 41.0911 154.068 40.9219 153.797 40.7969C153.531 40.6719 153.216 40.6094 152.852 40.6094C152.456 40.6094 152.115 40.6927 151.828 40.8594C151.547 41.0208 151.315 41.2448 151.133 41.5312C150.951 41.8125 150.815 42.1406 150.727 42.5156C150.643 42.8854 150.602 43.2812 150.602 43.7031ZM167.539 36.625L162.797 48.9766H161.555L166.305 36.625H167.539ZM176.789 42.5391H175.438V41.5781H176.734C177.307 41.5781 177.771 41.4974 178.125 41.3359C178.479 41.1745 178.737 40.9505 178.898 40.6641C179.06 40.3776 179.141 40.0469 179.141 39.6719C179.141 39.3125 179.052 38.9844 178.875 38.6875C178.698 38.3854 178.424 38.1458 178.055 37.9688C177.685 37.7865 177.208 37.6953 176.625 37.6953C176.188 37.6953 175.792 37.7786 175.438 37.9453C175.083 38.1068 174.802 38.3333 174.594 38.625C174.385 38.9115 174.281 39.2422 174.281 39.6172H172.773C172.773 39.1328 172.875 38.6979 173.078 38.3125C173.281 37.9219 173.56 37.5911 173.914 37.3203C174.268 37.0443 174.677 36.8333 175.141 36.6875C175.609 36.5417 176.104 36.4688 176.625 36.4688C177.234 36.4688 177.786 36.5391 178.281 36.6797C178.776 36.8151 179.201 37.0182 179.555 37.2891C179.909 37.5599 180.18 37.8958 180.367 38.2969C180.555 38.6979 180.648 39.1641 180.648 39.6953C180.648 40.0859 180.557 40.4531 180.375 40.7969C180.193 41.1406 179.932 41.4427 179.594 41.7031C179.255 41.9635 178.849 42.1693 178.375 42.3203C177.901 42.4661 177.372 42.5391 176.789 42.5391ZM175.438 41.875H176.789C177.43 41.875 178 41.9401 178.5 42.0703C179 42.2005 179.422 42.3906 179.766 42.6406C180.109 42.8906 180.37 43.2005 180.547 43.5703C180.729 43.9349 180.82 44.3542 180.82 44.8281C180.82 45.3594 180.716 45.8307 180.508 46.2422C180.305 46.6536 180.016 47.0026 179.641 47.2891C179.266 47.5755 178.82 47.7917 178.305 47.9375C177.794 48.0833 177.234 48.1562 176.625 48.1562C176.135 48.1562 175.651 48.0938 175.172 47.9688C174.698 47.8385 174.268 47.6406 173.883 47.375C173.497 47.1042 173.188 46.7604 172.953 46.3438C172.724 45.9271 172.609 45.4271 172.609 44.8438H174.117C174.117 45.224 174.221 45.5729 174.43 45.8906C174.643 46.2083 174.938 46.4635 175.312 46.6562C175.688 46.8438 176.125 46.9375 176.625 46.9375C177.198 46.9375 177.682 46.849 178.078 46.6719C178.479 46.4896 178.784 46.2422 178.992 45.9297C179.206 45.612 179.312 45.2552 179.312 44.8594C179.312 44.5104 179.255 44.2083 179.141 43.9531C179.031 43.6927 178.867 43.4792 178.648 43.3125C178.435 43.1458 178.167 43.0234 177.844 42.9453C177.526 42.862 177.156 42.8203 176.734 42.8203H175.438V41.875ZM187.57 46.5547V42.2031C187.57 41.8698 187.503 41.5807 187.367 41.3359C187.237 41.0859 187.039 40.8932 186.773 40.7578C186.508 40.6224 186.18 40.5547 185.789 40.5547C185.424 40.5547 185.104 40.6172 184.828 40.7422C184.557 40.8672 184.344 41.0312 184.188 41.2344C184.036 41.4375 183.961 41.6562 183.961 41.8906H182.516C182.516 41.5885 182.594 41.2891 182.75 40.9922C182.906 40.6953 183.13 40.4271 183.422 40.1875C183.719 39.9427 184.073 39.75 184.484 39.6094C184.901 39.4635 185.365 39.3906 185.875 39.3906C186.49 39.3906 187.031 39.4948 187.5 39.7031C187.974 39.9115 188.344 40.2266 188.609 40.6484C188.88 41.0651 189.016 41.5885 189.016 42.2188V46.1562C189.016 46.4375 189.039 46.737 189.086 47.0547C189.138 47.3724 189.214 47.6458 189.312 47.875V48H187.805C187.732 47.8333 187.674 47.612 187.633 47.3359C187.591 47.0547 187.57 46.7943 187.57 46.5547ZM187.82 42.875L187.836 43.8906H186.375C185.964 43.8906 185.596 43.9245 185.273 43.9922C184.951 44.0547 184.68 44.151 184.461 44.2812C184.242 44.4115 184.076 44.5755 183.961 44.7734C183.846 44.9661 183.789 45.1927 183.789 45.4531C183.789 45.7188 183.849 45.9609 183.969 46.1797C184.089 46.3984 184.268 46.5729 184.508 46.7031C184.753 46.8281 185.052 46.8906 185.406 46.8906C185.849 46.8906 186.24 46.7969 186.578 46.6094C186.917 46.4219 187.185 46.1927 187.383 45.9219C187.586 45.651 187.695 45.388 187.711 45.1328L188.328 45.8281C188.292 46.0469 188.193 46.2891 188.031 46.5547C187.87 46.8203 187.654 47.0755 187.383 47.3203C187.117 47.5599 186.799 47.7604 186.43 47.9219C186.065 48.0781 185.654 48.1562 185.195 48.1562C184.622 48.1562 184.12 48.0443 183.688 47.8203C183.26 47.5964 182.927 47.2969 182.688 46.9219C182.453 46.5417 182.336 46.1172 182.336 45.6484C182.336 45.1953 182.424 44.7969 182.602 44.4531C182.779 44.1042 183.034 43.8151 183.367 43.5859C183.701 43.3516 184.102 43.1745 184.57 43.0547C185.039 42.9349 185.562 42.875 186.141 42.875H187.82ZM195.258 44.2812H192.484L192.469 43.125H194.734C195.182 43.125 195.555 43.0807 195.852 42.9922C196.154 42.9036 196.38 42.7708 196.531 42.5938C196.682 42.4167 196.758 42.1979 196.758 41.9375C196.758 41.7344 196.714 41.5573 196.625 41.4062C196.542 41.25 196.414 41.1224 196.242 41.0234C196.07 40.9193 195.857 40.8438 195.602 40.7969C195.352 40.7448 195.057 40.7188 194.719 40.7188H192.867V48H191.422V39.5469H194.719C195.255 39.5469 195.737 39.5938 196.164 39.6875C196.596 39.7812 196.964 39.9245 197.266 40.1172C197.573 40.3047 197.807 40.5443 197.969 40.8359C198.13 41.1276 198.211 41.4714 198.211 41.8672C198.211 42.1224 198.159 42.3646 198.055 42.5938C197.951 42.8229 197.797 43.026 197.594 43.2031C197.391 43.3802 197.141 43.526 196.844 43.6406C196.547 43.75 196.206 43.8203 195.82 43.8516L195.258 44.2812ZM195.258 48H191.961L192.68 46.8281H195.258C195.659 46.8281 195.992 46.7786 196.258 46.6797C196.523 46.5755 196.721 46.4297 196.852 46.2422C196.987 46.0495 197.055 45.8203 197.055 45.5547C197.055 45.2891 196.987 45.0625 196.852 44.875C196.721 44.6823 196.523 44.5365 196.258 44.4375C195.992 44.3333 195.659 44.2812 195.258 44.2812H193.062L193.078 43.125H195.82L196.344 43.5625C196.807 43.599 197.201 43.7135 197.523 43.9062C197.846 44.099 198.091 44.3438 198.258 44.6406C198.424 44.9323 198.508 45.25 198.508 45.5938C198.508 45.9896 198.432 46.3385 198.281 46.6406C198.135 46.9427 197.922 47.1953 197.641 47.3984C197.359 47.5964 197.018 47.7474 196.617 47.8516C196.216 47.9505 195.763 48 195.258 48ZM205.43 46.5547V42.2031C205.43 41.8698 205.362 41.5807 205.227 41.3359C205.096 41.0859 204.898 40.8932 204.633 40.7578C204.367 40.6224 204.039 40.5547 203.648 40.5547C203.284 40.5547 202.964 40.6172 202.688 40.7422C202.417 40.8672 202.203 41.0312 202.047 41.2344C201.896 41.4375 201.82 41.6562 201.82 41.8906H200.375C200.375 41.5885 200.453 41.2891 200.609 40.9922C200.766 40.6953 200.99 40.4271 201.281 40.1875C201.578 39.9427 201.932 39.75 202.344 39.6094C202.76 39.4635 203.224 39.3906 203.734 39.3906C204.349 39.3906 204.891 39.4948 205.359 39.7031C205.833 39.9115 206.203 40.2266 206.469 40.6484C206.74 41.0651 206.875 41.5885 206.875 42.2188V46.1562C206.875 46.4375 206.898 46.737 206.945 47.0547C206.997 47.3724 207.073 47.6458 207.172 47.875V48H205.664C205.591 47.8333 205.534 47.612 205.492 47.3359C205.451 47.0547 205.43 46.7943 205.43 46.5547ZM205.68 42.875L205.695 43.8906H204.234C203.823 43.8906 203.456 43.9245 203.133 43.9922C202.81 44.0547 202.539 44.151 202.32 44.2812C202.102 44.4115 201.935 44.5755 201.82 44.7734C201.706 44.9661 201.648 45.1927 201.648 45.4531C201.648 45.7188 201.708 45.9609 201.828 46.1797C201.948 46.3984 202.128 46.5729 202.367 46.7031C202.612 46.8281 202.911 46.8906 203.266 46.8906C203.708 46.8906 204.099 46.7969 204.438 46.6094C204.776 46.4219 205.044 46.1927 205.242 45.9219C205.445 45.651 205.555 45.388 205.57 45.1328L206.188 45.8281C206.151 46.0469 206.052 46.2891 205.891 46.5547C205.729 46.8203 205.513 47.0755 205.242 47.3203C204.977 47.5599 204.659 47.7604 204.289 47.9219C203.924 48.0781 203.513 48.1562 203.055 48.1562C202.482 48.1562 201.979 48.0443 201.547 47.8203C201.12 47.5964 200.786 47.2969 200.547 46.9219C200.312 46.5417 200.195 46.1172 200.195 45.6484C200.195 45.1953 200.284 44.7969 200.461 44.4531C200.638 44.1042 200.893 43.8151 201.227 43.5859C201.56 43.3516 201.961 43.1745 202.43 43.0547C202.898 42.9349 203.422 42.875 204 42.875H205.68ZM214.883 43.2109V44.3828H210.414V43.2109H214.883ZM210.719 39.5469V48H209.273V39.5469H210.719ZM216.055 39.5469V48H214.602V39.5469H216.055ZM221.828 39.5469V48H220.375V39.5469H221.828ZM224.664 39.5469V40.7188H217.594V39.5469H224.664ZM230.945 46.5547V42.2031C230.945 41.8698 230.878 41.5807 230.742 41.3359C230.612 41.0859 230.414 40.8932 230.148 40.7578C229.883 40.6224 229.555 40.5547 229.164 40.5547C228.799 40.5547 228.479 40.6172 228.203 40.7422C227.932 40.8672 227.719 41.0312 227.562 41.2344C227.411 41.4375 227.336 41.6562 227.336 41.8906H225.891C225.891 41.5885 225.969 41.2891 226.125 40.9922C226.281 40.6953 226.505 40.4271 226.797 40.1875C227.094 39.9427 227.448 39.75 227.859 39.6094C228.276 39.4635 228.74 39.3906 229.25 39.3906C229.865 39.3906 230.406 39.4948 230.875 39.7031C231.349 39.9115 231.719 40.2266 231.984 40.6484C232.255 41.0651 232.391 41.5885 232.391 42.2188V46.1562C232.391 46.4375 232.414 46.737 232.461 47.0547C232.513 47.3724 232.589 47.6458 232.688 47.875V48H231.18C231.107 47.8333 231.049 47.612 231.008 47.3359C230.966 47.0547 230.945 46.7943 230.945 46.5547ZM231.195 42.875L231.211 43.8906H229.75C229.339 43.8906 228.971 43.9245 228.648 43.9922C228.326 44.0547 228.055 44.151 227.836 44.2812C227.617 44.4115 227.451 44.5755 227.336 44.7734C227.221 44.9661 227.164 45.1927 227.164 45.4531C227.164 45.7188 227.224 45.9609 227.344 46.1797C227.464 46.3984 227.643 46.5729 227.883 46.7031C228.128 46.8281 228.427 46.8906 228.781 46.8906C229.224 46.8906 229.615 46.7969 229.953 46.6094C230.292 46.4219 230.56 46.1927 230.758 45.9219C230.961 45.651 231.07 45.388 231.086 45.1328L231.703 45.8281C231.667 46.0469 231.568 46.2891 231.406 46.5547C231.245 46.8203 231.029 47.0755 230.758 47.3203C230.492 47.5599 230.174 47.7604 229.805 47.9219C229.44 48.0781 229.029 48.1562 228.57 48.1562C227.997 48.1562 227.495 48.0443 227.062 47.8203C226.635 47.5964 226.302 47.2969 226.062 46.9219C225.828 46.5417 225.711 46.1172 225.711 45.6484C225.711 45.1953 225.799 44.7969 225.977 44.4531C226.154 44.1042 226.409 43.8151 226.742 43.5859C227.076 43.3516 227.477 43.1745 227.945 43.0547C228.414 42.9349 228.938 42.875 229.516 42.875H231.195ZM237.227 44.3203L234.023 39.5469H235.766L237.953 43.0469H239.641L239.43 44.3203H237.227ZM238.016 44.1719L235.562 48H233.734L237.102 43.125L238.016 44.1719ZM240.383 39.5469V48H238.938V39.5469H240.383ZM245.312 39.5469L242.109 44.3203H239.906L239.68 43.0469H241.375L243.562 39.5469H245.312ZM243.766 48L241.305 44.1719L242.234 43.125L245.594 48H243.766ZM248.492 45.7109L252.391 39.5469H253.844V48H252.391V41.8359L248.492 48H247.055V39.5469H248.492V45.7109ZM259.609 39.5469V48H258.156V39.5469H259.609ZM262.445 39.5469V40.7188H255.375V39.5469H262.445ZM265.43 45.7109L269.328 39.5469H270.781V48H269.328V41.8359L265.43 48H263.992V39.5469H265.43V45.7109Z" fill="#EAEAEA"/>
<path d="M96.5156 68.9531V69.6719C96.5156 70.526 96.4089 71.2917 96.1953 71.9688C95.9818 72.6458 95.6745 73.2214 95.2734 73.6953C94.8724 74.1693 94.3906 74.5312 93.8281 74.7812C93.2708 75.0312 92.6458 75.1562 91.9531 75.1562C91.2812 75.1562 90.6641 75.0312 90.1016 74.7812C89.5443 74.5312 89.0599 74.1693 88.6484 73.6953C88.2422 73.2214 87.9271 72.6458 87.7031 71.9688C87.4792 71.2917 87.3672 70.526 87.3672 69.6719V68.9531C87.3672 68.099 87.4766 67.3359 87.6953 66.6641C87.9193 65.987 88.2344 65.4115 88.6406 64.9375C89.0469 64.4583 89.5286 64.0938 90.0859 63.8438C90.6484 63.5938 91.2656 63.4688 91.9375 63.4688C92.6302 63.4688 93.2552 63.5938 93.8125 63.8438C94.375 64.0938 94.8568 64.4583 95.2578 64.9375C95.6641 65.4115 95.974 65.987 96.1875 66.6641C96.4062 67.3359 96.5156 68.099 96.5156 68.9531ZM95.0234 69.6719V68.9375C95.0234 68.2604 94.9531 67.6615 94.8125 67.1406C94.6771 66.6198 94.4766 66.1823 94.2109 65.8281C93.9453 65.474 93.6198 65.2057 93.2344 65.0234C92.8542 64.8411 92.4219 64.75 91.9375 64.75C91.4688 64.75 91.0443 64.8411 90.6641 65.0234C90.2891 65.2057 89.9661 65.474 89.6953 65.8281C89.4297 66.1823 89.224 66.6198 89.0781 67.1406C88.9323 67.6615 88.8594 68.2604 88.8594 68.9375V69.6719C88.8594 70.3542 88.9323 70.9583 89.0781 71.4844C89.224 72.0052 89.4323 72.4453 89.7031 72.8047C89.9792 73.1589 90.3047 73.4271 90.6797 73.6094C91.0599 73.7917 91.4844 73.8828 91.9531 73.8828C92.4427 73.8828 92.8776 73.7917 93.2578 73.6094C93.638 73.4271 93.9583 73.1589 94.2188 72.8047C94.4844 72.4453 94.6849 72.0052 94.8203 71.4844C94.9557 70.9583 95.0234 70.3542 95.0234 69.6719ZM100.125 63V75H98.6719V63H100.125ZM107.773 73.3594V63H109.227V75H107.898L107.773 73.3594ZM102.086 70.8672V70.7031C102.086 70.0573 102.164 69.4714 102.32 68.9453C102.482 68.4141 102.708 67.9583 103 67.5781C103.297 67.1979 103.648 66.9062 104.055 66.7031C104.466 66.4948 104.924 66.3906 105.43 66.3906C105.961 66.3906 106.424 66.4844 106.82 66.6719C107.221 66.8542 107.56 67.1224 107.836 67.4766C108.117 67.8255 108.339 68.2474 108.5 68.7422C108.661 69.237 108.773 69.7969 108.836 70.4219V71.1406C108.779 71.7604 108.667 72.3177 108.5 72.8125C108.339 73.3073 108.117 73.7292 107.836 74.0781C107.56 74.4271 107.221 74.6953 106.82 74.8828C106.419 75.0651 105.951 75.1562 105.414 75.1562C104.919 75.1562 104.466 75.0495 104.055 74.8359C103.648 74.6224 103.297 74.3229 103 73.9375C102.708 73.5521 102.482 73.099 102.32 72.5781C102.164 72.0521 102.086 71.4818 102.086 70.8672ZM103.539 70.7031V70.8672C103.539 71.2891 103.581 71.6849 103.664 72.0547C103.753 72.4245 103.888 72.75 104.07 73.0312C104.253 73.3125 104.484 73.5339 104.766 73.6953C105.047 73.8516 105.383 73.9297 105.773 73.9297C106.253 73.9297 106.646 73.8281 106.953 73.625C107.266 73.4219 107.516 73.1536 107.703 72.8203C107.891 72.487 108.036 72.125 108.141 71.7344V69.8516C108.078 69.5651 107.987 69.2891 107.867 69.0234C107.753 68.7526 107.602 68.513 107.414 68.3047C107.232 68.0911 107.005 67.9219 106.734 67.7969C106.469 67.6719 106.154 67.6094 105.789 67.6094C105.393 67.6094 105.052 67.6927 104.766 67.8594C104.484 68.0208 104.253 68.2448 104.07 68.5312C103.888 68.8125 103.753 69.1406 103.664 69.5156C103.581 69.8854 103.539 70.2812 103.539 70.7031ZM118.656 71.5625L120.914 63.625H122.008L121.375 66.7109L118.945 75H117.859L118.656 71.5625ZM116.32 63.625L118.117 71.4062L118.656 75H117.578L114.82 63.625H116.32ZM124.93 71.3984L126.688 63.625H128.195L125.445 75H124.367L124.93 71.3984ZM122.172 63.625L124.367 71.5625L125.164 75H124.078L121.734 66.7109L121.094 63.625H122.172ZM131.219 66.5469V75H129.766V66.5469H131.219ZM129.656 64.3047C129.656 64.0703 129.727 63.8724 129.867 63.7109C130.013 63.5495 130.227 63.4688 130.508 63.4688C130.784 63.4688 130.995 63.5495 131.141 63.7109C131.292 63.8724 131.367 64.0703 131.367 64.3047C131.367 64.5286 131.292 64.7214 131.141 64.8828C130.995 65.0391 130.784 65.1172 130.508 65.1172C130.227 65.1172 130.013 65.0391 129.867 64.8828C129.727 64.7214 129.656 64.5286 129.656 64.3047ZM134.984 68.3516V75H133.539V66.5469H134.906L134.984 68.3516ZM134.641 70.4531L134.039 70.4297C134.044 69.8516 134.13 69.3177 134.297 68.8281C134.464 68.3333 134.698 67.9036 135 67.5391C135.302 67.1745 135.661 66.8932 136.078 66.6953C136.5 66.4922 136.966 66.3906 137.477 66.3906C137.893 66.3906 138.268 66.4479 138.602 66.5625C138.935 66.6719 139.219 66.849 139.453 67.0938C139.693 67.3385 139.875 67.6562 140 68.0469C140.125 68.4323 140.188 68.9036 140.188 69.4609V75H138.734V69.4453C138.734 69.0026 138.669 68.6484 138.539 68.3828C138.409 68.112 138.219 67.9167 137.969 67.7969C137.719 67.6719 137.411 67.6094 137.047 67.6094C136.688 67.6094 136.359 67.6849 136.062 67.8359C135.771 67.987 135.518 68.1953 135.305 68.4609C135.096 68.7266 134.932 69.0312 134.812 69.375C134.698 69.7135 134.641 70.0729 134.641 70.4531ZM147.711 73.3594V63H149.164V75H147.836L147.711 73.3594ZM142.023 70.8672V70.7031C142.023 70.0573 142.102 69.4714 142.258 68.9453C142.419 68.4141 142.646 67.9583 142.938 67.5781C143.234 67.1979 143.586 66.9062 143.992 66.7031C144.404 66.4948 144.862 66.3906 145.367 66.3906C145.898 66.3906 146.362 66.4844 146.758 66.6719C147.159 66.8542 147.497 67.1224 147.773 67.4766C148.055 67.8255 148.276 68.2474 148.438 68.7422C148.599 69.237 148.711 69.7969 148.773 70.4219V71.1406C148.716 71.7604 148.604 72.3177 148.438 72.8125C148.276 73.3073 148.055 73.7292 147.773 74.0781C147.497 74.4271 147.159 74.6953 146.758 74.8828C146.357 75.0651 145.888 75.1562 145.352 75.1562C144.857 75.1562 144.404 75.0495 143.992 74.8359C143.586 74.6224 143.234 74.3229 142.938 73.9375C142.646 73.5521 142.419 73.099 142.258 72.5781C142.102 72.0521 142.023 71.4818 142.023 70.8672ZM143.477 70.7031V70.8672C143.477 71.2891 143.518 71.6849 143.602 72.0547C143.69 72.4245 143.826 72.75 144.008 73.0312C144.19 73.3125 144.422 73.5339 144.703 73.6953C144.984 73.8516 145.32 73.9297 145.711 73.9297C146.19 73.9297 146.583 73.8281 146.891 73.625C147.203 73.4219 147.453 73.1536 147.641 72.8203C147.828 72.487 147.974 72.125 148.078 71.7344V69.8516C148.016 69.5651 147.924 69.2891 147.805 69.0234C147.69 68.7526 147.539 68.513 147.352 68.3047C147.169 68.0911 146.943 67.9219 146.672 67.7969C146.406 67.6719 146.091 67.6094 145.727 67.6094C145.331 67.6094 144.99 67.6927 144.703 67.8594C144.422 68.0208 144.19 68.2448 144.008 68.5312C143.826 68.8125 143.69 69.1406 143.602 69.5156C143.518 69.8854 143.477 70.2812 143.477 70.7031ZM151.031 70.8672V70.6875C151.031 70.0781 151.12 69.513 151.297 68.9922C151.474 68.4661 151.729 68.0104 152.062 67.625C152.396 67.2344 152.799 66.9323 153.273 66.7188C153.747 66.5 154.279 66.3906 154.867 66.3906C155.461 66.3906 155.995 66.5 156.469 66.7188C156.948 66.9323 157.354 67.2344 157.688 67.625C158.026 68.0104 158.284 68.4661 158.461 68.9922C158.638 69.513 158.727 70.0781 158.727 70.6875V70.8672C158.727 71.4766 158.638 72.0417 158.461 72.5625C158.284 73.0833 158.026 73.5391 157.688 73.9297C157.354 74.3151 156.951 74.6172 156.477 74.8359C156.008 75.0495 155.477 75.1562 154.883 75.1562C154.289 75.1562 153.755 75.0495 153.281 74.8359C152.807 74.6172 152.401 74.3151 152.062 73.9297C151.729 73.5391 151.474 73.0833 151.297 72.5625C151.12 72.0417 151.031 71.4766 151.031 70.8672ZM152.477 70.6875V70.8672C152.477 71.2891 152.526 71.6875 152.625 72.0625C152.724 72.4323 152.872 72.7604 153.07 73.0469C153.273 73.3333 153.526 73.5599 153.828 73.7266C154.13 73.888 154.482 73.9688 154.883 73.9688C155.279 73.9688 155.625 73.888 155.922 73.7266C156.224 73.5599 156.474 73.3333 156.672 73.0469C156.87 72.7604 157.018 72.4323 157.117 72.0625C157.221 71.6875 157.273 71.2891 157.273 70.8672V70.6875C157.273 70.2708 157.221 69.8776 157.117 69.5078C157.018 69.1328 156.867 68.8021 156.664 68.5156C156.466 68.224 156.216 67.9948 155.914 67.8281C155.617 67.6615 155.268 67.5781 154.867 67.5781C154.471 67.5781 154.122 67.6615 153.82 67.8281C153.523 67.9948 153.273 68.224 153.07 68.5156C152.872 68.8021 152.724 69.1328 152.625 69.5078C152.526 69.8776 152.477 70.2708 152.477 70.6875ZM162.68 73.5L164.852 66.5469H165.805L165.617 67.9297L163.406 75H162.477L162.68 73.5ZM161.219 66.5469L163.07 73.5781L163.203 75H162.227L159.773 66.5469H161.219ZM167.883 73.5234L169.648 66.5469H171.086L168.633 75H167.664L167.883 73.5234ZM166.016 66.5469L168.141 73.3828L168.383 75H167.461L165.188 67.9141L165 66.5469H166.016ZM177.492 72.7578C177.492 72.5495 177.445 72.3568 177.352 72.1797C177.263 71.9974 177.078 71.8333 176.797 71.6875C176.521 71.5365 176.104 71.4062 175.547 71.2969C175.078 71.1979 174.654 71.0807 174.273 70.9453C173.898 70.8099 173.578 70.6458 173.312 70.4531C173.052 70.2604 172.852 70.0339 172.711 69.7734C172.57 69.513 172.5 69.2083 172.5 68.8594C172.5 68.526 172.573 68.2109 172.719 67.9141C172.87 67.6172 173.081 67.3542 173.352 67.125C173.628 66.8958 173.958 66.7161 174.344 66.5859C174.729 66.4557 175.159 66.3906 175.633 66.3906C176.31 66.3906 176.888 66.5104 177.367 66.75C177.846 66.9896 178.214 67.3099 178.469 67.7109C178.724 68.1068 178.852 68.5469 178.852 69.0312H177.406C177.406 68.7969 177.336 68.5703 177.195 68.3516C177.06 68.1276 176.859 67.9427 176.594 67.7969C176.333 67.651 176.013 67.5781 175.633 67.5781C175.232 67.5781 174.906 67.6406 174.656 67.7656C174.411 67.8854 174.232 68.0391 174.117 68.2266C174.008 68.4141 173.953 68.612 173.953 68.8203C173.953 68.9766 173.979 69.1172 174.031 69.2422C174.089 69.362 174.188 69.474 174.328 69.5781C174.469 69.6771 174.667 69.7708 174.922 69.8594C175.177 69.9479 175.503 70.0365 175.898 70.125C176.591 70.2812 177.161 70.4688 177.609 70.6875C178.057 70.9062 178.391 71.1745 178.609 71.4922C178.828 71.8099 178.938 72.1953 178.938 72.6484C178.938 73.0182 178.859 73.3568 178.703 73.6641C178.552 73.9714 178.331 74.237 178.039 74.4609C177.753 74.6797 177.409 74.8516 177.008 74.9766C176.612 75.0964 176.167 75.1562 175.672 75.1562C174.927 75.1562 174.297 75.0234 173.781 74.7578C173.266 74.4922 172.875 74.1484 172.609 73.7266C172.344 73.3047 172.211 72.8594 172.211 72.3906H173.664C173.685 72.7865 173.799 73.1016 174.008 73.3359C174.216 73.5651 174.471 73.7292 174.773 73.8281C175.076 73.9219 175.375 73.9688 175.672 73.9688C176.068 73.9688 176.398 73.9167 176.664 73.8125C176.935 73.7083 177.141 73.5651 177.281 73.3828C177.422 73.2005 177.492 72.9922 177.492 72.7578ZM192.211 63.625V64.8359L187.812 75H185.438L189.836 65.3828H184.172V63.625H192.211ZM195.898 73.1016L195.891 74.6094C195.891 75.1875 195.745 75.7708 195.453 76.3594C195.167 76.9479 194.802 77.4297 194.359 77.8047L193.188 77.2031C193.318 76.9635 193.445 76.724 193.57 76.4844C193.695 76.2448 193.799 75.9818 193.883 75.6953C193.966 75.4089 194.008 75.0833 194.008 74.7188V73.1016H195.898ZM209.258 71.8828C209.258 72.5964 209.091 73.1979 208.758 73.6875C208.424 74.1719 207.966 74.5391 207.383 74.7891C206.805 75.0339 206.148 75.1562 205.414 75.1562C204.68 75.1562 204.021 75.0339 203.438 74.7891C202.854 74.5391 202.393 74.1719 202.055 73.6875C201.716 73.1979 201.547 72.5964 201.547 71.8828C201.547 71.4036 201.643 70.9714 201.836 70.5859C202.029 70.1953 202.297 69.862 202.641 69.5859C202.99 69.3047 203.398 69.0911 203.867 68.9453C204.336 68.7943 204.846 68.7188 205.398 68.7188C206.138 68.7188 206.799 68.849 207.383 69.1094C207.966 69.3698 208.424 69.737 208.758 70.2109C209.091 70.6849 209.258 71.2422 209.258 71.8828ZM206.992 71.7344C206.992 71.3854 206.924 71.0859 206.789 70.8359C206.659 70.5807 206.474 70.3854 206.234 70.25C205.995 70.1146 205.716 70.0469 205.398 70.0469C205.081 70.0469 204.802 70.1146 204.562 70.25C204.323 70.3854 204.135 70.5807 204 70.8359C203.87 71.0859 203.805 71.3854 203.805 71.7344C203.805 72.0781 203.87 72.375 204 72.625C204.135 72.875 204.323 73.0677 204.562 73.2031C204.807 73.3333 205.091 73.3984 205.414 73.3984C205.737 73.3984 206.016 73.3333 206.25 73.2031C206.49 73.0677 206.672 72.875 206.797 72.625C206.927 72.375 206.992 72.0781 206.992 71.7344ZM209.016 66.6406C209.016 67.2188 208.862 67.7318 208.555 68.1797C208.247 68.6224 207.82 68.9688 207.273 69.2188C206.732 69.4688 206.112 69.5938 205.414 69.5938C204.711 69.5938 204.086 69.4688 203.539 69.2188C202.992 68.9688 202.565 68.6224 202.258 68.1797C201.951 67.7318 201.797 67.2188 201.797 66.6406C201.797 65.9531 201.951 65.375 202.258 64.9062C202.57 64.4323 202.997 64.0729 203.539 63.8281C204.086 63.5833 204.706 63.4609 205.398 63.4609C206.102 63.4609 206.724 63.5833 207.266 63.8281C207.812 64.0729 208.24 64.4323 208.547 64.9062C208.859 65.375 209.016 65.9531 209.016 66.6406ZM206.766 66.7422C206.766 66.4349 206.711 66.1693 206.602 65.9453C206.492 65.7161 206.336 65.5391 206.133 65.4141C205.935 65.2891 205.69 65.2266 205.398 65.2266C205.117 65.2266 204.875 65.2865 204.672 65.4062C204.474 65.526 204.32 65.7005 204.211 65.9297C204.107 66.1536 204.055 66.4245 204.055 66.7422C204.055 67.0495 204.107 67.3203 204.211 67.5547C204.32 67.7839 204.477 67.9635 204.68 68.0938C204.883 68.224 205.128 68.2891 205.414 68.2891C205.701 68.2891 205.943 68.224 206.141 68.0938C206.344 67.9635 206.497 67.7839 206.602 67.5547C206.711 67.3203 206.766 67.0495 206.766 66.7422Z" fill="#EAEAEA"/>
<path d="M35 46.7475L46.2477 45.2789L46.2526 55.6806L35.0103 55.742L35 46.7475ZM46.2423 56.8791L46.251 67.2898L35.0087 65.8079L35.0081 56.8092L46.2423 56.8791ZM47.6058 45.0868L62.5193 43V55.5483L47.6058 55.6618V45.0868ZM62.5227 56.977L62.5192 69.4688L47.6058 67.4507L47.5849 56.9536L62.5227 56.977Z" fill="#EDEDED"/>
<defs>
<filter id="filter0_d_126_8" x="8" y="10" width="299" height="98" filterUnits="userSpaceOnUse" color-interpolation-filters="sRGB">
<feFlood flood-opacity="0" result="BackgroundImageFix"/>
<feColorMatrix in="SourceAlpha" type="matrix" values="0 0 0 0 0 0 0 0 0 0 0 0 0 0 0 0 0 0 127 0" result="hardAlpha"/>
<feOffset dx="2" dy="2"/>
<feGaussianBlur stdDeviation="2"/>
<feComposite in2="hardAlpha" operator="out"/>
<feColorMatrix type="matrix" values="0 0 0 0 0 0 0 0 0 0 0 0 0 0 0 0 0 0 0.25 0"/>
<feBlend mode="normal" in2="BackgroundImageFix" result="effect1_dropShadow_126_8"/>
<feBlend mode="normal" in="SourceGraphic" in2="effect1_dropShadow_126_8" result="shape"/>
</filter>
<linearGradient id="paint0_linear_126_8" x1="155.5" y1="12" x2="155.5" y2="102" gradientUnits="userSpaceOnUse">
<stop stop-color="#B20101"/>
<stop offset="1"/>
</linearGradient>
</defs>
</svg>
